<?xml version="1.0" encoding="UTF-8"?>
<svg id="Layer_2" data-name="Layer 2" xmlns="http://www.w3.org/2000/svg" xmlns:xlink="http://www.w3.org/1999/xlink" viewBox="0 0 1080 1080">
  <defs>
    <style>
      .cls-1 {
        fill: #141414;
      }

      .cls-2 {
        fill: #fff;
      }

      .cls-3 {
        fill: url(#linear-gradient);
      }
    </style>
    <linearGradient id="linear-gradient" x1="545.58" y1="598.82" x2="683.83" y2="737.07" gradientUnits="userSpaceOnUse">
      <stop offset="0" stop-color="#141414"/>
      <stop offset=".07" stop-color="#454545"/>
      <stop offset=".15" stop-color="#707070"/>
      <stop offset=".23" stop-color="#969696"/>
      <stop offset=".32" stop-color="#b7b7b7"/>
      <stop offset=".41" stop-color="#d1d1d1"/>
      <stop offset=".51" stop-color="#e5e5e5"/>
      <stop offset=".63" stop-color="#f4f4f4"/>
      <stop offset=".77" stop-color="#fcfcfc"/>
      <stop offset="1" stop-color="#fff"/>
    </linearGradient>
  </defs>
  <g id="Dark">
    <rect class="cls-1" width="1080" height="1080" rx="75" ry="75"/>
    <g>
      <path class="cls-3" d="M700,704.45c-13.47,13.47-31.13,20.22-48.79,20.22s-35.32-6.75-48.79-20.22l-97.93-97.93h53.72c13.37,0,26.3-1.86,38.55-5.31l103.24,103.24Z"/>
      <path class="cls-2" d="M700,350.18v114.54c0,26.62-7.33,51.51-20.09,72.79-12,20.06-28.86,36.92-48.92,48.92-10.59,6.37-22.08,11.36-34.23,14.78-12.25,3.46-25.18,5.31-38.55,5.31h-109.19v123.3c0,38.1-30.87,69.01-69.01,69.01v-419.88c19.07,0,36.31,7.74,48.82,20.22.8.8,1.57,1.63,2.34,2.46,11.1,12.22,17.85,28.51,17.85,46.33v89.55h109.19c40.22,0,72.79-32.6,72.79-72.79v-183.55c19.07,0,36.31,7.74,48.79,20.22,12.51,12.48,20.22,29.75,20.22,48.79Z"/>
    </g>
  </g>
</svg>