<?xml version="1.0" encoding="UTF-8"?>
<svg id="Layer_2" data-name="Layer 2" xmlns="http://www.w3.org/2000/svg" xmlns:xlink="http://www.w3.org/1999/xlink" viewBox="0 0 536 333">
  <defs>
    <style>
      .cls-1 {
        opacity: .8;
      }

      .cls-1, .cls-2, .cls-3, .cls-4, .cls-5, .cls-6, .cls-7, .cls-8, .cls-9, .cls-10, .cls-11, .cls-12 {
        stroke-width: 0px;
      }

      .cls-1, .cls-5 {
        fill: #fff;
      }

      .cls-1, .cls-6, .cls-9 {
        isolation: isolate;
      }

      .cls-2, .cls-6, .cls-9 {
        fill: #001e2b;
      }

      .cls-3 {
        fill: #e0e0e0;
      }

      .cls-4 {
        fill: none;
      }

      .cls-6 {
        opacity: .4;
      }

      .cls-7 {
        fill: #3d4f58;
      }

      .cls-13 {
        clip-path: url(#clippath);
      }

      .cls-8 {
        fill: #ebebeb;
      }

      .cls-9 {
        opacity: .3;
      }

      .cls-10 {
        fill: #ffbe9d;
      }

      .cls-11 {
        fill: #eb996e;
      }

      .cls-12 {
        fill: #656a7e;
      }
    </style>
    <clipPath id="clippath">
      <rect class="cls-4" width="536" height="333"/>
    </clipPath>
  </defs>
  <g id="Layer_1-2" data-name="Layer 1">
    <g class="cls-13">
      <path class="cls-8" d="M343.09,322.86c3.79-2.13,8.66-2.21,12.52-.21s6.6,6.02,7.04,10.35c-7.99,0-15.86-1.86-19.56-10.14h0ZM352.41,314.67c5.35,1.75,11.54.63,15.94-2.87,4.4-3.51,6.87-9.3,6.35-14.9-10.15,1.99-19.68,6.32-22.3,17.77Z"/>
      <path class="cls-3" d="M317.62,328.19s.17-.08.5-.2c.37-.13.85-.29,1.46-.49,1.79-.58,3.58-1.18,5.36-1.8,4.51-1.56,10.71-3.82,17.38-6.73,3.13-1.37,6.23-2.83,9.28-4.38,2.8-1.45,5.29-2.83,7.32-4.08,2.02-1.27,3.62-2.34,4.64-3.2,1.04-.82,1.56-1.36,1.59-1.32,0,0-.11.14-.36.39-.25.25-.6.63-1.13,1.05-1.01.89-2.6,2.01-4.6,3.32-2.02,1.28-4.49,2.7-7.3,4.16-3.05,1.57-6.15,3.04-9.29,4.42-5.71,2.48-11.54,4.69-17.45,6.63-2.27.75-4.12,1.31-5.4,1.67-.61.17-1.1.31-1.48.42-.33.1-.52.14-.52.13h0Z"/>
      <path class="cls-3" d="M353.36,327.51c-.04.06-.96-.58-2.56-1.45-2.08-1.12-4.27-2-6.54-2.63-2.28-.62-4.61-.98-6.97-1.07-1.81-.07-2.93.02-2.94-.06,0-.03.28-.07.78-.13.51-.06,1.25-.1,2.16-.1,1.83,0,4.37.23,7.07.96,2.7.74,5.01,1.84,6.58,2.77.78.47,1.4.88,1.81,1.19.42.31.63.48.62.51h0Z"/>
      <path class="cls-8" d="M164.86,291.93c-1.92,5.14-1.1,11.21,2.14,15.64,3.24,4.43,8.77,7.08,14.24,6.8-1.51-9.96-5.35-19.42-16.38-22.44h0Z"/>
      <path class="cls-3" d="M163.3,287.04c.06-.02.34,1.09.91,2.83.75,2.26,1.69,4.45,2.81,6.55,1.13,2.09,2.44,4.09,3.9,5.97,1.13,1.44,1.9,2.28,1.84,2.33-.02.02-.23-.17-.6-.53-.37-.36-.88-.91-1.47-1.61-1.2-1.4-2.71-3.47-4.04-5.96-1.14-2.12-2.05-4.35-2.72-6.66-.21-.7-.38-1.41-.52-2.12-.1-.5-.14-.78-.11-.79Z"/>
      <path class="cls-8" d="M6.74,92.25c-2.98,7.95-1.7,17.37,3.31,24.23,5.01,6.86,13.59,10.95,22.07,10.53-2.35-15.43-8.28-30.08-25.37-34.76Z"/>
      <path class="cls-3" d="M4.32,84.68s.16.41.37,1.18c.2.77.53,1.87.97,3.22,1.14,3.51,2.59,6.92,4.33,10.18,1.75,3.25,3.79,6.35,6.09,9.24.69.88,1.41,1.74,2.14,2.59.52.6.8.94.77.96-.02.02-.34-.28-.89-.85-.56-.56-1.34-1.42-2.26-2.51-1.84-2.18-4.15-5.39-6.22-9.23-2.06-3.85-3.44-7.56-4.24-10.29-.4-1.37-.69-2.49-.85-3.27-.16-.78-.24-1.21-.21-1.22Z"/>
      <path class="cls-8" d="M33.48,249.76c-4.27,3.44-6.65,9.09-6.12,14.55.53,5.46,3.95,10.55,8.81,13.1,3.75-9.35,5.27-19.44-2.69-27.66Z"/>
      <path class="cls-8" d="M180.31,49.66c4.91,2.44,11.04,2.24,15.78-.52,4.74-2.76,7.94-8,8.22-13.48-10.07.49-19.86,3.33-24,14h0Z"/>
      <path class="cls-3" d="M175.29,50.71c0-.07,1.12-.22,2.9-.62,2.32-.51,4.6-1.22,6.8-2.12,2.2-.91,4.32-2,6.34-3.27,1.55-.97,2.46-1.65,2.5-1.6.02.02-.19.21-.59.55-.4.33-.99.78-1.75,1.3-1.52,1.04-3.74,2.33-6.34,3.41-2.61,1.07-5.09,1.71-6.91,2.03-.91.16-1.65.26-2.16.3-.51.05-.79.06-.8.03h0Z"/>
      <path class="cls-8" d="M159.8,48.22c7.07-1.52,13.22-6.77,15.83-13.51,2.61-6.74,1.6-14.77-2.6-20.65-9.97,8.78-17.74,19.76-13.23,34.16h0Z"/>
      <path class="cls-8" d="M224.71,319.3c1.49,2.94,4.53,5.05,7.81,5.42,3.28.37,6.71-1.01,8.82-3.55-5.03-3.38-10.79-5.53-16.62-1.87h0Z"/>
      <path class="cls-3" d="M221.91,318c.06-.12,2.45,1.27,5.7,2.09,3.24.85,6,.78,6,.9,0,.05-.68.14-1.8.1-1.12-.02-2.65-.19-4.3-.61-1.41-.36-2.77-.88-4.07-1.53-.99-.51-1.55-.91-1.53-.96h0Z"/>
      <path class="cls-8" d="M298.06,35.18c2.03,2.6,5.42,4.08,8.71,3.81,3.29-.27,6.39-2.29,7.96-5.19-5.59-2.33-11.65-3.33-16.67,1.39Z"/>
      <path class="cls-3" d="M295.06,34.46c.04-.13,2.64.78,5.99.95,3.35.21,6.04-.4,6.06-.27,0,.05-.64.26-1.74.45-1.1.19-2.64.33-4.34.23-1.45-.08-2.89-.32-4.29-.71-1.07-.32-1.69-.6-1.68-.65h0Z"/>
      <path class="cls-8" d="M488.15,59.53c5.29,1.46,11.26.09,15.38-3.53,4.11-3.62,6.25-9.37,5.49-14.79-9.79,2.4-18.86,7.06-20.87,18.32Z"/>
      <path class="cls-3" d="M483.41,61.52c-.02-.06,1.05-.44,2.73-1.16,2.18-.95,4.28-2.08,6.27-3.39,1.99-1.32,3.86-2.8,5.59-4.42,1.33-1.25,2.1-2.09,2.14-2.05.02.02-.15.25-.48.65-.32.4-.82.96-1.47,1.61-1.69,1.71-3.56,3.24-5.57,4.56-2.36,1.54-4.67,2.65-6.39,3.31-.68.27-1.36.5-2.06.71-.49.14-.77.21-.78.18h0Z"/>
      <path class="cls-8" d="M506.87,300.71c9.29-2.14,17.3-9.2,20.61-18.15,3.31-8.94,1.81-19.51-3.85-27.19-12.98,11.79-22.99,26.44-16.76,45.34Z"/>
      <path class="cls-3" d="M501.28,307.68s.29-.4.88-1.08c.83-.94,1.63-1.91,2.41-2.9,1.16-1.46,2.26-2.97,3.31-4.51,1.27-1.9,2.45-3.86,3.54-5.86,1.07-2.02,2.05-4.08,2.93-6.19.71-1.72,1.36-3.47,1.93-5.25.39-1.2.75-2.4,1.08-3.62.24-.86.38-1.34.4-1.33.03,0-.06.49-.25,1.37-.18.88-.51,2.13-.96,3.66s-1.08,3.34-1.86,5.31c-.87,2.13-1.84,4.21-2.92,6.23-1.1,2.02-2.29,3.98-3.58,5.88-1.21,1.74-2.37,3.26-3.39,4.48-1.03,1.23-1.89,2.19-2.52,2.83-.61.64-.97.98-.99.96h0Z"/>
      <path class="cls-12" d="M399.45,200.94c-5-27.9-28.94-52.25-57.18-54.55-15.39-1.25-30.86,3.6-46.18,1.75-12.86-1.55-25.07-7.99-33.61-17.73-12.64-14.4-16.95-34.89-30.34-48.6-18.47-18.9-50.7-19.2-73.17-5.29-22.47,13.9-36.06,39-42.28,64.67l-.25,7.81c-1.35,26.64,5.65,57.6,21.11,81.34,15.66,24.06,25.95,33.99,54.48,51.29,24.23,14.69,71.67,21.14,100,21.83,28.33.68,57.42-7.76,78.73-26.45,21.29-18.67,33.69-48.17,28.69-76.06h0Z"/>
      <path class="cls-1" d="M399.45,200.94c-5-27.9-28.94-52.25-57.18-54.55-15.39-1.25-30.86,3.6-46.18,1.75-12.86-1.55-25.07-7.99-33.61-17.73-12.64-14.4-16.95-34.89-30.34-48.6-18.47-18.9-50.7-19.2-73.17-5.29-22.47,13.9-36.06,39-42.28,64.67l-.25,7.81c-1.35,26.64,5.65,57.6,21.11,81.34,15.66,24.06,25.95,33.99,54.48,51.29,24.23,14.69,71.67,21.14,100,21.83,28.33.68,57.42-7.76,78.73-26.45,21.29-18.67,33.69-48.17,28.69-76.06h0Z"/>
      <path class="cls-12" d="M427.19,300.53c1.08-7.46-4.09-14.39-11.55-15.47-7.46-1.08-14.39,4.09-15.47,11.55-1.08,7.46,4.09,14.39,11.55,15.47,7.46,1.08,14.38-4.09,15.47-11.55Z"/>
      <path class="cls-1" d="M427.19,300.53c1.08-7.46-4.09-14.39-11.55-15.47-7.46-1.08-14.39,4.09-15.47,11.55-1.08,7.46,4.09,14.39,11.55,15.47,7.46,1.08,14.38-4.09,15.47-11.55Z"/>
      <path class="cls-12" d="M317.91,193.54c.26,27.24-5.68,48.07-17.82,62.49-12.14,14.42-28.77,21.72-49.87,21.92-21.21.21-38.06-6.78-50.57-20.96-12.51-14.17-18.89-34.88-19.16-62.14l-.46-47.92c-.26-27.15,5.68-47.98,17.82-62.49,12.14-14.5,28.81-21.86,50.01-22.07,21.1-.21,37.92,6.83,50.43,21.11,12.51,14.28,18.9,34.98,19.16,62.13l.46,47.93h0ZM282.44,140.6c-.17-17.16-3.17-29.83-9-38.02-5.83-8.19-14.27-12.23-25.3-12.12-11.03.1-19.36,4.31-24.99,12.61-5.63,8.3-8.36,21.03-8.2,38.18l.56,58.23c.17,17.26,3.19,30,9.07,38.24,5.88,8.24,14.34,12.3,25.38,12.19,11.03-.1,19.34-4.3,24.92-12.61,5.58-8.3,8.28-21.12,8.12-38.47l-.57-58.23h0Z"/>
      <path class="cls-6" d="M317.91,193.54c.26,27.24-5.68,48.07-17.82,62.49-12.14,14.42-28.77,21.72-49.87,21.92-21.21.21-38.06-6.78-50.57-20.96-12.51-14.17-18.89-34.88-19.16-62.14l-.46-47.92c-.26-27.15,5.68-47.98,17.82-62.49,12.14-14.5,28.81-21.86,50.01-22.07,21.1-.21,37.92,6.83,50.43,21.11,12.51,14.28,18.9,34.98,19.16,62.13l.46,47.93h0ZM282.44,140.6c-.17-17.16-3.17-29.83-9-38.02-5.83-8.19-14.27-12.23-25.3-12.12-11.03.1-19.36,4.31-24.99,12.61-5.63,8.3-8.36,21.03-8.2,38.18l.56,58.23c.17,17.26,3.19,30,9.07,38.24,5.88,8.24,14.34,12.3,25.38,12.19,11.03-.1,19.34-4.3,24.92-12.61,5.58-8.3,8.28-21.12,8.12-38.47l-.57-58.23h0Z"/>
      <path class="cls-12" d="M338.06,193.35c.26,27.24-5.68,48.07-17.82,62.49-12.14,14.42-28.77,21.72-49.87,21.92-21.21.21-38.06-6.78-50.57-20.96-12.51-14.17-18.9-34.88-19.16-62.14l-.45-47.91c-.26-27.15,5.68-47.98,17.82-62.49,12.14-14.5,28.81-21.86,50.01-22.07,21.1-.21,37.92,6.83,50.42,21.11,12.51,14.28,18.9,34.98,19.16,62.13l.45,47.92h0ZM302.59,140.4c-.17-17.16-3.17-29.83-9-38.02-5.83-8.19-14.27-12.23-25.3-12.12-11.03.1-19.36,4.31-24.99,12.61-5.62,8.3-8.36,21.03-8.2,38.18l.56,58.23c.17,17.26,3.19,30,9.07,38.24,5.88,8.24,14.34,12.3,25.37,12.19,11.03-.1,19.34-4.3,24.92-12.6,5.58-8.3,8.29-21.12,8.12-38.47l-.57-58.23h0Z"/>
      <path class="cls-12" d="M200.33,149.6c.04.1-4.64,1.96-10.44,4.15-5.82,2.18-10.55,3.87-10.6,3.76-.04-.1,4.64-1.96,10.45-4.15,5.81-2.18,10.55-3.87,10.59-3.76ZM201.49,168.54c.04.1-4.64,1.96-10.44,4.15-5.82,2.18-10.55,3.87-10.6,3.76-.04-.1,4.64-1.96,10.45-4.15,5.8-2.18,10.55-3.87,10.59-3.76ZM202.66,187.47c.04.1-4.64,1.96-10.44,4.15-5.82,2.18-10.55,3.87-10.6,3.76-.04-.1,4.64-1.96,10.45-4.15,5.8-2.18,10.55-3.87,10.59-3.76ZM203.82,206.41c.04.1-4.64,1.96-10.44,4.15-5.82,2.18-10.55,3.87-10.6,3.76-.04-.1,4.64-1.96,10.45-4.15,5.8-2.18,10.55-3.87,10.59-3.76ZM204.98,225.35s-.24.15-.73.36c-.48.21-1.17.49-2.02.83-2.24.89-4.49,1.76-6.75,2.6-2.26.86-4.52,1.68-6.8,2.49-.87.31-1.58.55-2.07.71-.49.16-.77.24-.78.21,0-.02.25-.15.73-.36.48-.21,1.17-.49,2.03-.83,2.24-.89,4.49-1.76,6.75-2.6,2.25-.85,4.52-1.68,6.79-2.49.87-.31,1.58-.55,2.07-.71.5-.16.77-.24.79-.21ZM210.38,242.67c.02.05-.89.45-2.4,1.05-1.95.78-3.92,1.54-5.89,2.28-2.31.87-4.41,1.63-5.93,2.16-1.53.53-2.48.84-2.5.78-.02-.06.89-.45,2.4-1.05,1.95-.78,3.92-1.54,5.89-2.28,2.3-.87,4.4-1.63,5.93-2.16,1.53-.54,2.48-.84,2.5-.78h0ZM221.96,258.56c.02.06-.79.41-2.13.96-3.48,1.39-6.99,2.71-10.52,3.96-1.36.47-2.21.74-2.23.68-.02-.05.79-.41,2.13-.96,3.48-1.39,6.99-2.71,10.52-3.96,1.36-.47,2.21-.74,2.23-.68h0ZM241.2,268.98c.02.06-.79.41-2.13.96-1.33.54-3.19,1.26-5.24,2.03-1.75.66-3.52,1.3-5.29,1.92-1.36.48-2.21.74-2.23.68s.79-.41,2.13-.96c1.33-.54,3.19-1.26,5.24-2.03,1.75-.66,3.52-1.3,5.29-1.92,1.36-.48,2.21-.74,2.23-.68ZM299.21,228.58c.05.1-5.96,2.9-13.41,6.26-7.45,3.36-13.54,5.98-13.59,5.88-.05-.1,5.96-2.9,13.41-6.26,7.46-3.36,13.54-5.99,13.58-5.88h0ZM303.15,212.35c.05.1-4.91,2.44-11.07,5.21-6.16,2.77-11.2,4.93-11.24,4.83-.05-.1,4.91-2.44,11.08-5.21,6.15-2.77,11.19-4.93,11.23-4.83ZM304.96,194.12c.05.1-4.91,2.44-11.07,5.21-6.16,2.77-11.2,4.93-11.24,4.83-.05-.1,4.91-2.44,11.08-5.21,6.16-2.77,11.19-4.93,11.24-4.83h0ZM306.77,175.9c.05.1-4.91,2.44-11.07,5.21-6.16,2.77-11.2,4.93-11.24,4.83-.05-.1,4.91-2.44,11.08-5.21,6.15-2.77,11.2-4.94,11.23-4.83ZM308.59,157.66c.05.1-4.91,2.44-11.07,5.21-6.16,2.77-11.2,4.93-11.24,4.83-.05-.1,4.91-2.44,11.08-5.21,6.15-2.77,11.19-4.93,11.23-4.83h0ZM304.96,141.43c.05.1-4.91,2.44-11.07,5.21-6.16,2.77-11.2,4.93-11.24,4.83-.05-.1,4.91-2.44,11.08-5.21,6.16-2.77,11.19-4.93,11.24-4.83h0ZM304.96,123.96c.05.1-4.91,2.44-11.07,5.21-6.16,2.77-11.2,4.93-11.24,4.83-.05-.1,4.91-2.44,11.08-5.21,6.16-2.77,11.19-4.93,11.24-4.83h0ZM303.15,107.51c.05.1-4.91,2.44-11.07,5.21-6.16,2.77-11.2,4.93-11.24,4.83-.05-.1,4.91-2.44,11.08-5.21,6.15-2.77,11.19-4.93,11.23-4.83ZM287.52,96.05c.05.1-2.95,1.55-6.7,3.24-3.75,1.69-6.83,2.97-6.87,2.86-.05-.1,2.95-1.55,6.7-3.24,3.74-1.69,6.82-2.97,6.87-2.86ZM279.16,89.02c.05.1-2.95,1.55-6.7,3.24-3.75,1.69-6.83,2.97-6.87,2.86-.05-.1,2.95-1.55,6.7-3.24,3.74-1.68,6.82-2.97,6.87-2.86ZM201.22,126.64c.04.1-4.64,1.96-10.44,4.15-5.82,2.18-10.56,3.87-10.6,3.76-.04-.11,4.64-1.96,10.45-4.15,5.81-2.18,10.55-3.86,10.59-3.76ZM207.05,103.03c.04.1-5.03,2.11-11.33,4.48-6.3,2.37-11.43,4.2-11.47,4.09-.04-.1,5.03-2.11,11.33-4.48,6.3-2.37,11.43-4.2,11.47-4.09ZM222.26,79.65c.04.1-6.39,2.62-14.37,5.62-7.98,3-14.47,5.34-14.51,5.23-.04-.1,6.39-2.62,14.37-5.62,7.97-2.99,14.47-5.33,14.51-5.23h0Z"/>
      <path class="cls-5" d="M334.65,228.84s-.12-.03-.33-.11c-.23-.09-.55-.21-.95-.37-.42-.16-.97-.27-1.6-.45-.65-.09-1.39-.27-2.24-.27-3.38-.22-8.44,1.01-13.34,4.68-2.48,1.77-4.8,4.2-7.07,6.99-2.27,2.78-4.49,5.92-7.02,9.09-2.52,3.16-5.43,6.36-9.11,8.84-3.66,2.48-7.99,4.28-12.61,5.11-4.63.86-9.3.61-13.6-.45-4.31-1.04-8.24-2.73-11.92-4.42-3.67-1.7-7.1-3.44-10.4-4.87-3.28-1.46-6.46-2.51-9.43-3.21-2.98-.68-5.73-.97-8.15-.94-2.07.02-4.13.3-6.13.83-1.63.5-2.86,1.01-3.65,1.43-.39.21-.68.37-.9.48-.21.1-.31.16-.32.15,0,0,.1-.07.29-.19.21-.13.51-.29.89-.51.78-.44,2.01-.99,3.64-1.51,2.01-.57,4.08-.87,6.17-.91,2.44-.06,5.22.22,8.22.89,2.99.69,6.2,1.73,9.5,3.18,3.32,1.42,6.75,3.15,10.42,4.84,3.67,1.68,7.58,3.36,11.85,4.38,4.25,1.05,8.86,1.28,13.43.44,4.57-.82,8.84-2.6,12.46-5.04,3.65-2.44,6.53-5.6,9.05-8.74,2.52-3.15,4.76-6.28,7.05-9.07,2.29-2.79,4.64-5.23,7.16-7,4.96-3.67,10.1-4.88,13.51-4.61.86.02,1.61.21,2.26.31.63.19,1.18.32,1.6.49.4.17.71.31.94.41.2.1.31.15.3.16h0ZM339.64,176.02s-.56.12-1.54.44c-.97.33-2.33.97-3.82,2.04-1.51,1.05-3.15,2.52-5.07,4.04-2.11,1.64-4.39,3.04-6.8,4.19-5.13,2.47-10.28,3.43-13.97,3.61-.93.08-1.77.05-2.5.06-.73-.03-1.37-.04-1.89-.08l-1.19-.12c-.27-.03-.41-.05-.41-.07s.14-.02.42-.02c.32,0,.71.02,1.19.04.54,0,1.16,0,1.88.02.73-.04,1.57-.03,2.48-.13,3.66-.25,8.74-1.25,13.82-3.7,2.38-1.13,4.64-2.51,6.74-4.12,1.92-1.5,3.59-2.95,5.14-3.99,1.54-1.05,2.94-1.67,3.94-1.95.51-.13.89-.22,1.17-.25.24-.02.39-.04.39-.02h0ZM236.28,194.35s-.15,0-.43-.06c-.28-.06-.71-.13-1.23-.28-1.48-.44-2.91-1.07-4.24-1.86-1.69-.99-3.56-2.4-5.54-4.04-1.99-1.64-4.11-3.52-6.54-5.2-2.44-1.67-5.02-2.86-7.51-3.44-2.2-.55-4.47-.76-6.73-.64-1.93.1-3.48.42-4.52.69-1.05.27-1.62.48-1.64.44,0-.02.13-.07.4-.18.27-.1.66-.26,1.19-.41,1.48-.44,3.01-.72,4.55-.83,2.3-.16,4.6.02,6.84.56,2.54.57,5.18,1.78,7.65,3.47,2.46,1.7,4.58,3.6,6.55,5.25,1.96,1.66,3.79,3.09,5.44,4.09,1.3.8,2.69,1.46,4.14,1.95,1.04.32,1.62.46,1.61.5h0ZM236.43,119.55s-.46.2-1.32.48c-.43.15-.96.32-1.58.47-.62.16-1.33.36-2.12.51-.79.17-1.66.34-2.61.46-.94.16-1.95.23-3.02.32-2.32.15-4.65.12-6.96-.09-2.31-.23-4.61-.64-6.86-1.22-1.03-.29-2.02-.55-2.91-.89-.84-.28-1.66-.59-2.48-.93-.76-.29-1.41-.62-1.99-.89-.5-.23-.99-.48-1.46-.75-.79-.44-1.22-.7-1.2-.72.02-.02.47.18,1.28.58.4.21.89.44,1.49.69.59.25,1.24.57,2,.84.75.29,1.57.61,2.48.88.89.32,1.88.56,2.9.84,2.24.55,4.51.94,6.8,1.17,2.45.22,4.78.22,6.9.12,1.06-.09,2.07-.14,3-.29.94-.1,1.8-.26,2.6-.4.8-.13,1.49-.31,2.12-.45.62-.13,1.16-.28,1.59-.39.88-.23,1.37-.35,1.38-.32h0ZM335.15,119.35s-.13-.05-.34-.16c-.31-.17-.61-.35-.92-.53-.48-.29-.97-.56-1.47-.8-.58-.29-1.23-.66-2-.94-.38-.16-.78-.32-1.19-.49-.41-.17-.86-.29-1.32-.45-.9-.33-1.91-.56-2.96-.84-2.3-.5-4.64-.78-6.99-.82-2.5,0-4.87.28-7,.7-1.05.25-2.07.47-2.98.78-.46.15-.91.27-1.33.43-.41.17-.82.32-1.2.47-.77.28-1.42.63-2.02.91-.59.27-1.08.54-1.48.78-.36.21-.67.37-.93.51-.21.11-.33.17-.34.16s.1-.09.29-.23c.25-.16.54-.35.89-.58.39-.25.87-.55,1.45-.85.59-.29,1.23-.67,2.01-.97.39-.16.78-.32,1.2-.5s.87-.3,1.34-.46c.92-.34,1.94-.56,3-.83,2.33-.49,4.7-.73,7.08-.74,2.53.04,4.93.38,7.07.86,1.06.29,2.07.53,2.98.88.46.17.91.3,1.32.48.41.18.81.36,1.19.52.77.31,1.42.7,1.99,1,.59.3,1.06.6,1.44.87.35.24.64.43.88.6.22.14.32.22.31.23h0ZM286.78,65.6s-.19.13-.57.34c-.42.23-.97.53-1.68.91-2.06,1.11-4.15,2.18-6.24,3.22-5.3,2.62-12.76,6.2-21.57,8.44-4.41,1.08-8.72,1.67-12.65,1.76-3.93.09-7.48-.27-10.39-.89-2.91-.62-5.2-1.4-6.73-2.06-.77-.3-1.34-.62-1.74-.79-.4-.19-.59-.3-.59-.31,0-.02.22.07.62.24.41.16.98.45,1.76.72,1.54.61,3.82,1.35,6.72,1.92,2.9.58,6.42.91,10.33.8,3.9-.11,8.18-.7,12.56-1.78,8.76-2.22,16.2-5.75,21.54-8.3,2.63-1.3,4.77-2.35,6.29-3.1.72-.35,1.29-.63,1.72-.84.39-.18.61-.28.62-.26h0Z"/>
      <path class="cls-12" d="M127.93,203.48l26.45,1.15-1.23,28.04-26.45-1.15-2.03,46.59-34.79-1.52,2.03-46.59-89.85-3.93.07-21.35L97.87,67.18l35.94,1.57-5.88,134.72h0ZM36.93,199.5l56.21,2.45,3.71-84.97-.85-.32-3.14,6.05-55.93,76.79h0Z"/>
      <path class="cls-6" d="M127.93,203.48l26.45,1.15-1.23,28.04-26.45-1.15-2.03,46.59-34.79-1.52,2.03-46.59-89.85-3.93.07-21.35L97.87,67.18l35.94,1.57-5.88,134.72h0ZM36.93,199.5l56.21,2.45,3.71-84.97-.85-.32-3.14,6.05-55.93,76.79h0Z"/>
      <path class="cls-12" d="M150.06,204.44l26.45,1.16-1.23,28.04-26.45-1.16-2.03,46.59-34.79-1.52,2.03-46.59-89.85-3.93.07-21.35L120,68.15l35.94,1.57-5.88,134.72h0ZM59.05,200.47l56.21,2.45,3.71-84.97-.85-.32-3.14,6.05-55.93,76.79h0Z"/>
      <path class="cls-12" d="M24.7,209.74s-.29.2-.85.48-1.39.68-2.41,1.16c-2.66,1.24-5.34,2.43-8.05,3.57-2.7,1.15-5.43,2.24-8.17,3.28-.83.32-1.67.62-2.51.92-.59.21-.93.31-.94.28,0-.02.3-.18.89-.43.66-.28,1.48-.62,2.46-1.04,2.16-.9,4.99-2.08,8.12-3.4,3.12-1.33,5.93-2.54,8.09-3.46l2.45-1.04c.59-.25.92-.36.93-.34h0ZM37.59,186.05s-.41.24-1.19.63c-.78.38-1.92.91-3.32,1.56-2.82,1.29-6.74,3.01-11.1,4.85-4.36,1.84-8.32,3.46-11.21,4.58-1.14.45-2.28.88-3.43,1.3-.82.29-1.27.44-1.28.42,0-.02.43-.23,1.23-.56.86-.36,2-.84,3.38-1.43,2.92-1.23,6.83-2.87,11.16-4.69,4.32-1.84,8.23-3.5,11.14-4.73,1.38-.59,2.52-1.07,3.38-1.43.81-.36,1.25-.53,1.27-.5ZM53.31,164.92s-.44.25-1.25.63c-.81.38-2,.92-3.47,1.56-2.94,1.29-7.04,3.01-11.58,4.85-3.88,1.58-7.78,3.11-11.69,4.58-1.5.56-2.73,1.01-3.58,1.3-.85.29-1.32.44-1.34.41,0-.02.44-.23,1.28-.56.89-.36,2.09-.84,3.53-1.42,3.04-1.23,7.13-2.87,11.65-4.69,4.51-1.84,8.59-3.5,11.62-4.73l3.52-1.43c.83-.35,1.3-.52,1.31-.49h0ZM116.28,189.33s-.29.19-.86.47c-.56.28-1.39.66-2.41,1.12-2.04.93-4.89,2.15-8.06,3.44-2.71,1.1-5.44,2.14-8.18,3.14-1.05.38-1.91.68-2.51.87-.59.2-.93.29-.94.26,0-.02.31-.17.89-.41.66-.27,1.49-.6,2.46-1,2.17-.86,5-2,8.14-3.25,3.12-1.28,5.95-2.44,8.1-3.32.98-.4,1.8-.73,2.46-1,.58-.23.91-.35.93-.32ZM113.72,232.79s-.29.19-.83.47c-.77.38-1.55.76-2.33,1.12-2.58,1.2-5.19,2.34-7.82,3.43-2.63,1.1-5.27,2.14-7.94,3.14-1.02.38-1.86.68-2.44.88-.58.2-.9.29-.92.27,0-.02.29-.17.86-.41.64-.27,1.44-.6,2.39-1,2.1-.87,4.85-2,7.89-3.25,3.02-1.28,5.76-2.44,7.86-3.32.94-.4,1.74-.73,2.39-1,.57-.23.89-.35.89-.32ZM113.35,248.04s-.29.19-.83.47-1.35.66-2.33,1.12c-2.58,1.2-5.19,2.34-7.82,3.43-2.63,1.1-5.27,2.14-7.94,3.14-1.02.38-1.86.68-2.44.88-.58.2-.9.29-.92.27,0-.02.29-.17.86-.41.64-.27,1.44-.6,2.39-1,2.1-.87,4.85-2,7.89-3.25,3.02-1.28,5.76-2.44,7.86-3.32.94-.4,1.74-.73,2.39-1,.56-.24.89-.35.89-.32h0ZM112.99,263.27s-.29.19-.83.47c-.77.38-1.55.76-2.33,1.12-2.58,1.2-5.19,2.34-7.82,3.43-2.63,1.1-5.27,2.14-7.94,3.14-1.02.38-1.86.68-2.44.88-.58.2-.9.29-.92.27,0-.02.29-.17.85-.41.64-.27,1.44-.6,2.39-1,2.11-.87,4.85-2,7.89-3.25,3.02-1.28,5.76-2.44,7.86-3.32.94-.39,1.74-.73,2.39-1,.56-.23.88-.35.89-.32h0ZM116.7,173.22s-.29.19-.86.47c-.56.28-1.39.66-2.41,1.12-2.67,1.2-5.35,2.35-8.06,3.44-2.71,1.1-5.44,2.14-8.18,3.14-1.05.38-1.92.68-2.51.87-.59.2-.93.29-.94.26,0-.02.31-.18.89-.41.66-.27,1.49-.6,2.46-1,2.17-.86,5-2,8.14-3.25,3.12-1.28,5.95-2.44,8.1-3.32.98-.4,1.8-.73,2.46-1,.58-.23.91-.34.93-.32h0ZM117.1,157.13s-.29.19-.86.47c-.56.28-1.39.66-2.41,1.12-2.04.93-4.89,2.15-8.06,3.44-2.71,1.1-5.44,2.14-8.18,3.14-1.05.38-1.92.68-2.51.87-.59.2-.93.29-.94.26,0-.02.31-.17.89-.41.66-.27,1.49-.6,2.46-1,2.17-.86,5-2,8.14-3.25,3.12-1.28,5.95-2.44,8.1-3.32.98-.4,1.8-.73,2.46-1,.58-.23.91-.34.93-.32h0ZM117.52,141.03s-.28.18-.82.44c-.54.26-1.32.62-2.29,1.07-2.54,1.14-5.1,2.24-7.68,3.28-2.58,1.05-5.18,2.04-7.8,2.98-.79.29-1.59.56-2.39.83-.57.18-.89.28-.89.24,0-.02.29-.17.84-.4.63-.25,1.42-.58,2.34-.95,2.07-.82,4.76-1.91,7.75-3.09,2.97-1.22,5.66-2.33,7.71-3.17.93-.37,1.71-.7,2.34-.95.56-.21.87-.32.89-.29h0ZM119.34,125.99c.04.1-1.73.86-3.96,1.69-2.23.82-4.07,1.41-4.11,1.31-.04-.1,1.73-.86,3.96-1.69,2.22-.83,4.07-1.42,4.11-1.31ZM68.99,143.01s-.44.25-1.25.63c-.82.38-2,.92-3.47,1.56-2.94,1.29-7.04,3.01-11.58,4.85-3.88,1.58-7.78,3.11-11.69,4.58-1.5.56-2.73,1.01-3.58,1.3-.85.29-1.32.44-1.34.41,0-.02.44-.23,1.28-.56.89-.36,2.09-.84,3.53-1.42,3.04-1.23,7.13-2.87,11.65-4.69,4.51-1.84,8.59-3.5,11.62-4.73l3.52-1.43c.84-.34,1.31-.51,1.31-.49h0ZM84.7,121.11s-.43.25-1.25.63c-.82.38-2,.92-3.47,1.56-2.94,1.29-7.04,3.01-11.58,4.85-3.88,1.58-7.78,3.11-11.69,4.58-1.5.56-2.73,1.01-3.58,1.3-.85.29-1.32.44-1.34.41,0-.02.44-.23,1.28-.56.89-.36,2.09-.84,3.53-1.42,3.04-1.23,7.13-2.87,11.65-4.69,4.51-1.83,8.59-3.5,11.62-4.73l3.52-1.43c.83-.35,1.3-.52,1.31-.49h0ZM99.2,99.19s-.43.25-1.25.63c-.82.38-2,.92-3.47,1.56-2.94,1.29-7.04,3.01-11.58,4.85-3.88,1.58-7.78,3.11-11.69,4.58-1.5.56-2.73,1-3.58,1.3-.85.29-1.32.44-1.34.41,0-.02.44-.23,1.28-.56.89-.36,2.09-.84,3.53-1.42,3.04-1.23,7.13-2.87,11.65-4.69,4.51-1.83,8.59-3.5,11.62-4.73l3.52-1.43c.84-.34,1.31-.51,1.31-.49h0ZM114.3,78.13s-.43.25-1.25.63-2,.92-3.47,1.56c-2.94,1.29-7.04,3.01-11.58,4.85-3.88,1.58-7.78,3.11-11.69,4.58-1.5.56-2.73,1-3.58,1.3-.85.29-1.32.44-1.34.41,0-.02.44-.23,1.28-.56.89-.36,2.09-.84,3.53-1.42,3.04-1.23,7.13-2.87,11.65-4.69l11.62-4.73,3.52-1.43c.83-.34,1.3-.51,1.31-.49h0Z"/>
      <path class="cls-5" d="M154.35,110.32s-.15.19-.46.52c-.31.33-.77.82-1.43,1.39-1.29,1.15-3.32,2.67-6.15,3.97-2.82,1.3-6.45,2.32-10.57,2.41-2.16.04-4.31-.2-6.4-.72-2.18-.51-4.34-1.4-6.47-2.41-4.26-2.07-8.04-4.52-11.73-6.22-3.67-1.74-7.29-2.6-10.36-2.71-3.08-.11-5.52.58-7.07,1.32-.77.38-1.35.71-1.72.98-.37.25-.58.38-.59.37,0,0,.18-.16.54-.43.35-.29.93-.65,1.69-1.06,1.54-.79,4.03-1.54,7.14-1.47,3.11.07,6.79.91,10.51,2.65,3.74,1.7,7.53,4.14,11.75,6.2,2.11,1,4.24,1.88,6.38,2.4,2.14.53,4.26.76,6.3.73,4.06-.07,7.66-1.04,10.45-2.29,2.22-.98,4.3-2.27,6.16-3.82.67-.54,1.15-1.01,1.48-1.32.33-.33.51-.49.52-.47h0ZM143.33,71.19s-.35.23-1,.59c-.66.36-1.64.82-2.87,1.35-1.23.53-2.73,1.07-4.43,1.58-1.7.5-3.6.95-5.62,1.29-2.02.32-3.96.49-5.74.56-1.77.05-3.37.02-4.7-.1-1.34-.1-2.41-.23-3.15-.36-.74-.13-1.14-.21-1.14-.24,0-.03.42,0,1.15.08.74.09,1.82.17,3.14.23,1.33.07,2.91.08,4.67,0,1.9-.1,3.8-.3,5.68-.59,1.88-.32,3.74-.73,5.58-1.25,1.68-.49,3.19-1,4.42-1.49.98-.38,1.95-.78,2.91-1.22.7-.3,1.08-.46,1.09-.43h0ZM87.16,159.07s-.27-.27-.71-.8c-.62-.74-1.25-1.48-1.88-2.22-1.6-1.86-3.89-4.38-6.62-6.93-1.37-1.27-2.76-2.38-4.15-3.2-1.39-.82-2.76-1.3-3.96-1.54-2.41-.48-3.92.07-3.93-.02,0-.01.09-.05.26-.1.17-.06.43-.12.78-.18.68-.12,1.7-.18,2.93.02,1.23.2,2.66.67,4.09,1.5,1.43.81,2.86,1.94,4.24,3.22,2.35,2.2,4.54,4.55,6.57,7.04.62.76,1.21,1.53,1.78,2.32.41.55.62.87.59.89h0ZM150.27,182.99s-.09.1-.31.24c-.21.14-.51.36-.94.6-.83.51-2.08,1.16-3.71,1.76-3.22,1.23-8.14,2.13-13.4,1.06-5.25-1.08-9.42-3.84-11.9-6.24-1.26-1.2-2.15-2.29-2.72-3.08-.29-.39-.48-.71-.62-.93-.14-.21-.21-.33-.19-.34.03-.02.34.41.94,1.16.85,1.06,1.78,2.05,2.79,2.97,2.5,2.32,6.63,4.99,11.78,6.05,5.15,1.05,10,.22,13.21-.93,1.28-.44,2.53-.99,3.73-1.63.86-.46,1.32-.74,1.35-.71h0ZM173.32,233.09s-.09-.12-.23-.36c-.15-.26-.36-.63-.62-1.09-.51-.99-1.43-2.34-2.71-4.01l-1.08-1.27c-.19-.22-.38-.45-.58-.68-.22-.21-.44-.43-.67-.66-.48-.47-.95-.93-1.42-1.4-.53-.44-1.09-.9-1.66-1.38-2.65-2.11-5.57-3.85-8.69-5.17-3.46-1.45-7.49-2.53-11.91-2.76-4.41-.25-9.16.43-13.79,2.22-4.63,1.82-9.1,4.57-13.83,7.23-2.37,1.33-4.82,2.63-7.43,3.68-2.6,1.06-5.38,1.88-8.27,2.17-2.89.33-5.78.06-8.54-.51-2.76-.59-5.38-1.56-7.86-2.68-4.97-2.26-9.32-5.25-13.38-8.13-4.07-2.89-7.9-5.67-11.72-7.9-3.81-2.22-7.6-3.93-11.26-4.81-3.65-.87-7.1-1.01-10.06-.66-2.97.32-5.44,1.17-7.31,2.11-1.9.93-3.12,2.03-3.98,2.73-.38.38-.68.68-.89.89-.2.2-.32.29-.32.29,0,0,.09-.11.28-.32.2-.22.49-.53.86-.93.84-.73,2.06-1.86,3.96-2.81,1.88-.97,4.36-1.85,7.35-2.2,2.98-.38,6.46-.25,10.15.61,3.69.87,7.53,2.57,11.36,4.8,3.85,2.23,7.7,5.02,11.77,7.89,4.07,2.87,8.4,5.84,13.33,8.08,2.46,1.11,5.05,2.08,7.78,2.65,2.72.57,5.56.83,8.4.51,2.84-.29,5.58-1.09,8.16-2.14,2.59-1.04,5.02-2.34,7.39-3.66,4.72-2.64,9.21-5.4,13.89-7.23,1.18-.43,2.34-.86,3.53-1.14.59-.15,1.17-.33,1.76-.45.59-.1,1.19-.2,1.77-.29,2.34-.39,4.66-.41,6.88-.32,4.46.25,8.52,1.36,11.99,2.84,3.48,1.49,6.38,3.38,8.72,5.26.58.48,1.13.95,1.66,1.4l1.42,1.43.66.66.58.7c.37.45.73.88,1.07,1.29,1.26,1.69,2.16,3.07,2.65,4.07.25.48.45.85.59,1.12.14.24.2.38.2.38h0ZM149.41,266.14s-.13.05-.4.1c-.39.08-.78.15-1.17.22-.51.1-1.13.21-1.86.27-.73.07-1.56.2-2.48.21-.47.02-.95.04-1.45.06-.51.02-1.03,0-1.57-.02-1.09,0-2.25-.1-3.46-.2-2.64-.29-5.25-.8-7.81-1.52-2.54-.76-5.02-1.74-7.41-2.91-1.08-.58-2.12-1.1-3.03-1.69-.46-.29-.92-.55-1.34-.83-.39-.28-.79-.56-1.19-.83-.77-.52-1.41-1.06-1.98-1.52-.5-.38-.97-.79-1.42-1.23-.29-.27-.58-.54-.86-.82-.2-.19-.29-.29-.29-.31,0-.02.13.07.34.24.25.21.55.45.92.76.39.34.87.74,1.46,1.17.58.43,1.23.97,2,1.46.38.26.78.52,1.19.81.42.28.88.53,1.34.81.92.58,1.95,1.08,3.02,1.65,2.37,1.15,4.83,2.11,7.35,2.86,2.69.77,5.32,1.25,7.73,1.54,1.21.1,2.36.23,3.43.24.54,0,1.06.05,1.56.04.5-.02.98-.02,1.44-.04.92,0,1.75-.1,2.48-.15.62-.04,1.24-.11,1.86-.2.48-.06.86-.11,1.18-.15.27-.03.41-.04.42-.02h0Z"/>
      <path class="cls-12" d="M471.54,203.8l26.35-2.58,2.73,27.93-26.35,2.58,4.54,46.4-34.66,3.39-4.54-46.4-89.51,8.75-2.94-21.14,75.45-149.63,35.8-3.5,13.13,134.22h0ZM380.88,212.67l56-5.48-8.28-84.65-.89-.2-2.26,6.44-44.57,83.88Z"/>
      <path class="cls-6" d="M471.54,203.8l26.35-2.58,2.73,27.93-26.35,2.58,4.54,46.4-34.66,3.39-4.54-46.4-89.51,8.75-2.94-21.14,75.45-149.63,35.8-3.5,13.13,134.22h0ZM380.88,212.67l56-5.48-8.28-84.65-.89-.2-2.26,6.44-44.57,83.88Z"/>
      <path class="cls-12" d="M493.58,201.65l26.35-2.58,2.73,27.93-26.35,2.58,4.54,46.4-34.66,3.39-4.54-46.4-89.51,8.75-2.94-21.14,75.45-149.63,35.8-3.5,13.13,134.21h0ZM402.93,210.52l56-5.48-8.28-84.65-.89-.21-2.26,6.44-44.57,83.9Z"/>
      <path class="cls-12" d="M370.21,224.53s-.26.24-.78.59c-.73.51-1.47,1-2.22,1.49-2.46,1.6-4.95,3.16-7.46,4.67-2.51,1.51-5.06,2.98-7.63,4.4-.99.55-1.79.97-2.35,1.26-.56.29-.88.44-.89.41-.02-.02.28-.22.82-.55.61-.36,1.38-.83,2.29-1.37,2.52-1.5,5.04-3,7.56-4.5,2.9-1.76,5.52-3.35,7.52-4.56.91-.55,1.67-1.01,2.29-1.38.55-.32.85-.49.86-.47h0ZM379.63,199.26s-.37.3-1.09.79c-.72.48-1.77,1.17-3.07,2.01-3.41,2.17-6.84,4.29-10.3,6.36-3.46,2.08-6.94,4.12-10.45,6.12-1.06.6-2.14,1.19-3.21,1.77-.77.4-1.2.62-1.21.59-.02-.02.39-.29,1.13-.73l3.15-1.88c2.71-1.62,6.36-3.81,10.39-6.21,4.02-2.42,7.65-4.62,10.36-6.25,1.28-.78,2.34-1.41,3.14-1.9.74-.46,1.15-.7,1.16-.67h0ZM392.22,176.13s-.4.31-1.15.8c-.75.49-1.85,1.19-3.22,2.03-3.57,2.18-7.17,4.33-10.78,6.43-4.24,2.46-8.11,4.65-10.93,6.18-1.11.61-2.24,1.21-3.36,1.79-.8.41-1.25.62-1.27.6s.41-.29,1.19-.74c1.1-.63,2.2-1.27,3.29-1.91,2.84-1.64,6.65-3.85,10.87-6.28,4.21-2.45,8.02-4.67,10.85-6.32,1.35-.78,2.45-1.43,3.28-1.91.78-.46,1.22-.7,1.23-.67ZM458.01,191.43s-.27.23-.78.58c-.52.35-1.28.85-2.23,1.45-2.47,1.56-4.97,3.07-7.5,4.54-2.53,1.47-5.08,2.89-7.66,4.26-.99.52-1.8.94-2.36,1.22-.56.28-.88.42-.89.4-.02-.02.28-.21.81-.54.62-.36,1.39-.8,2.3-1.33,2.02-1.16,4.67-2.68,7.6-4.37l7.56-4.43c.91-.53,1.68-.97,2.3-1.34.55-.31.85-.47.87-.44h0ZM461.59,234.83s-.25.23-.76.58c-.5.35-1.23.84-2.15,1.43-2.39,1.55-4.81,3.05-7.26,4.5-2.44,1.46-4.92,2.87-7.41,4.23-.96.52-1.74.93-2.29,1.21-.55.28-.86.42-.87.39-.02-.02.27-.21.79-.53.6-.36,1.35-.8,2.22-1.32,1.96-1.15,4.52-2.66,7.35-4.33,2.82-1.69,5.36-3.22,7.31-4.39l2.22-1.32c.52-.32.82-.47.84-.45h0ZM463.36,249.97s-.25.23-.76.58c-.5.35-1.23.84-2.15,1.43-2.39,1.55-4.81,3.05-7.26,4.5-2.44,1.46-4.92,2.87-7.41,4.23-.96.52-1.74.93-2.29,1.21-.55.28-.86.42-.87.39-.02-.03.27-.21.79-.53l2.22-1.32c1.96-1.16,4.52-2.66,7.35-4.33,2.82-1.69,5.36-3.22,7.31-4.39l2.22-1.32c.52-.32.82-.48.84-.45h0ZM465.15,265.1s-.25.23-.76.58c-.71.49-1.43.97-2.15,1.43-1.83,1.2-4.39,2.79-7.26,4.5-2.44,1.46-4.92,2.87-7.41,4.23-.96.52-1.74.93-2.29,1.21s-.85.42-.87.39c-.02-.02.27-.21.79-.53l2.22-1.32c1.96-1.16,4.52-2.66,7.35-4.33,2.82-1.69,5.36-3.22,7.31-4.39.88-.52,1.62-.96,2.22-1.32.52-.32.82-.48.84-.45ZM456.15,175.44s-.27.23-.78.58c-.52.35-1.28.85-2.23,1.45-2.47,1.56-4.97,3.07-7.5,4.54-2.53,1.47-5.08,2.89-7.66,4.26-.99.52-1.8.94-2.36,1.22s-.88.42-.89.4c-.02-.02.28-.21.82-.54.62-.36,1.39-.8,2.3-1.33,2.02-1.16,4.67-2.68,7.6-4.37,2.91-1.71,5.55-3.25,7.56-4.43.91-.53,1.68-.97,2.3-1.34.55-.31.85-.47.87-.44h0ZM454.3,159.44s-.27.23-.78.58c-.52.35-1.28.85-2.23,1.45-2.47,1.56-4.97,3.07-7.5,4.54-2.53,1.47-5.08,2.89-7.66,4.27-.99.52-1.8.94-2.36,1.22-.56.28-.88.42-.89.4-.02-.02.28-.21.82-.54.62-.36,1.38-.8,2.29-1.33,2.02-1.16,4.67-2.68,7.6-4.37,2.91-1.71,5.55-3.25,7.56-4.43.91-.53,1.68-.97,2.3-1.34.55-.31.85-.47.87-.44h0ZM452.44,143.45s-.25.22-.74.55c-.5.33-1.22.81-2.12,1.38-4.7,2.98-9.52,5.77-14.44,8.38-.94.5-1.72.89-2.26,1.15s-.84.4-.86.37c-.02-.02.26-.21.77-.51.59-.34,1.32-.77,2.19-1.27l7.24-4.15c2.4-1.41,4.8-2.81,7.19-4.23.86-.5,1.6-.93,2.19-1.27.51-.28.81-.43.82-.4h0ZM452.12,128.3c.06.1-1.6,1.1-3.69,2.23-2.09,1.13-3.83,1.97-3.89,1.87-.05-.1,1.6-1.1,3.69-2.23,2.09-1.13,3.83-1.97,3.89-1.87ZM404.69,152.23s-.4.31-1.15.8c-.75.49-1.85,1.19-3.22,2.03-3.57,2.19-7.17,4.33-10.78,6.43-4.24,2.46-8.11,4.65-10.93,6.18-1.11.61-2.24,1.21-3.36,1.79-.8.41-1.25.62-1.27.6s.41-.29,1.19-.74c.84-.48,1.95-1.12,3.29-1.91,2.84-1.64,6.65-3.85,10.87-6.28,4.21-2.45,8.02-4.67,10.85-6.32,1.35-.78,2.45-1.43,3.28-1.91.78-.46,1.23-.7,1.23-.67h0ZM417.15,128.33s-.4.31-1.15.8c-.75.49-1.85,1.19-3.22,2.03-3.57,2.19-7.17,4.33-10.78,6.43-4.24,2.46-8.11,4.65-10.93,6.18-1.11.61-2.24,1.21-3.36,1.79-.8.41-1.25.62-1.27.6-.02-.02.41-.29,1.19-.74.84-.48,1.95-1.12,3.29-1.91,2.84-1.64,6.65-3.85,10.87-6.28,4.21-2.45,8.02-4.67,10.85-6.32,1.35-.78,2.45-1.43,3.28-1.91.78-.46,1.22-.7,1.23-.67ZM428.43,104.6s-.39.31-1.15.8c-.75.49-1.85,1.19-3.22,2.03-3.57,2.19-7.17,4.33-10.79,6.43-4.24,2.46-8.11,4.64-10.93,6.18-1.11.61-2.24,1.2-3.36,1.79-.8.41-1.25.62-1.27.6-.02-.02.41-.29,1.19-.74.84-.48,1.95-1.12,3.29-1.91,2.84-1.64,6.65-3.85,10.87-6.28,4.21-2.45,8.02-4.67,10.85-6.32,1.35-.78,2.45-1.43,3.28-1.92.78-.46,1.22-.7,1.23-.67ZM440.4,81.62s-.4.31-1.15.8c-.75.49-1.85,1.19-3.22,2.03-3.57,2.18-7.17,4.33-10.78,6.43-4.24,2.46-8.11,4.64-10.93,6.18-1.11.61-2.24,1.21-3.36,1.79-.8.41-1.25.62-1.27.6-.02-.02.41-.28,1.19-.74.84-.48,1.95-1.12,3.29-1.91,2.84-1.64,6.65-3.85,10.87-6.28,4.21-2.45,8.02-4.67,10.85-6.32,1.35-.78,2.45-1.43,3.28-1.92.78-.46,1.22-.7,1.23-.67h0Z"/>
      <path class="cls-5" d="M484.59,107.86s-.12.21-.39.58c-.26.37-.65.93-1.23,1.57-1.12,1.31-2.92,3.11-5.53,4.79-2.6,1.68-6.06,3.21-10.13,3.87-2.13.34-4.29.41-6.43.19-2.23-.21-4.49-.78-6.74-1.48-4.5-1.46-8.59-3.35-12.49-4.51-3.88-1.21-7.59-1.55-10.64-1.22-3.06.32-5.39,1.35-6.81,2.3-.7.48-1.23.89-1.56,1.21-.33.3-.52.46-.53.45s.15-.18.48-.51c.31-.34.82-.78,1.53-1.29,1.42-1,3.77-2.1,6.87-2.46,3.08-.37,6.85-.06,10.78,1.15,3.94,1.16,8.04,3.04,12.51,4.48,2.24.71,4.46,1.27,6.66,1.47,2.11.22,4.24.17,6.34-.16,4.01-.64,7.44-2.11,10.02-3.74,2.06-1.29,3.93-2.86,5.57-4.65.59-.62,1-1.16,1.27-1.52.29-.36.44-.54.45-.53ZM468.18,70.67s-.31.28-.91.72c-.6.45-1.5,1.04-2.65,1.73-1.15.7-2.55,1.44-4.16,2.19-1.75.79-3.55,1.48-5.38,2.07-1.84.56-3.71,1.02-5.6,1.36-1.75.3-3.33.49-4.67.57-1.34.09-2.42.11-3.17.08-.75-.02-1.16-.04-1.16-.07s.41-.06,1.15-.09c.74-.02,1.82-.09,3.15-.21,1.55-.15,3.09-.36,4.62-.65,1.87-.36,3.72-.83,5.55-1.39,1.82-.58,3.6-1.25,5.35-2.02,1.42-.63,2.81-1.33,4.17-2.1.92-.51,1.82-1.05,2.71-1.61.63-.39.99-.61,1.01-.58h0ZM424.93,165.58s-.31-.23-.82-.69c-.57-.51-1.3-1.16-2.17-1.94-1.84-1.61-4.46-3.78-7.53-5.93-1.54-1.07-3.07-1.97-4.56-2.58-1.49-.61-2.92-.9-4.13-.96-2.45-.13-3.87.62-3.89.52,0-.02.08-.06.25-.14.17-.08.41-.18.74-.28.66-.21,1.66-.42,2.91-.39,1.24.02,2.73.29,4.27.9,1.54.6,3.11,1.51,4.65,2.59,2.63,1.84,5.14,3.86,7.49,6.04.71.66,1.41,1.34,2.08,2.04.47.51.72.8.7.82h0ZM490.77,180.38s-.09.1-.27.28c-.19.17-.46.43-.85.73-.75.62-1.9,1.43-3.43,2.27-3.01,1.68-7.76,3.25-13.11,2.94-5.35-.32-9.87-2.48-12.66-4.5-1.42-1.01-2.45-1.96-3.13-2.67-.35-.34-.58-.64-.75-.82-.17-.2-.25-.3-.24-.31.02-.02.4.36,1.1,1.02.99.93,2.05,1.78,3.18,2.54,2.8,1.95,7.26,4.01,12.52,4.33,5.25.32,9.93-1.19,12.95-2.78,1.21-.62,2.37-1.34,3.46-2.14.78-.58,1.2-.92,1.21-.89h0ZM520.65,226.74s-.1-.11-.28-.33c-.18-.24-.44-.57-.78-1-.64-.9-1.75-2.11-3.24-3.59-.4-.35-.81-.72-1.24-1.11-.22-.19-.44-.4-.67-.59-.25-.18-.5-.36-.75-.56-.51-.38-1.05-.78-1.61-1.19-.59-.36-1.2-.74-1.84-1.13-2.92-1.72-6.06-3.03-9.33-3.89-3.63-.95-7.78-1.45-12.18-1.06-4.4.36-9.01,1.71-13.34,4.13-4.33,2.45-8.36,5.81-12.68,9.1-2.16,1.65-4.41,3.28-6.84,4.69-2.43,1.42-5.06,2.61-7.88,3.32-2.81.74-5.71.88-8.52.69-2.82-.19-5.55-.79-8.16-1.55-5.24-1.54-9.96-3.88-14.39-6.17s-8.62-4.51-12.72-6.18c-4.09-1.67-8.09-2.83-11.82-3.18-3.74-.35-7.17,0-10.05.76-2.9.74-5.22,1.92-6.94,3.12-1.75,1.18-2.81,2.45-3.55,3.26-.33.43-.58.77-.75,1.01-.17.23-.27.34-.27.34,0,0,.07-.13.24-.36.17-.24.41-.59.73-1.04.73-.83,1.78-2.13,3.53-3.34,1.72-1.23,4.06-2.45,6.97-3.21,2.9-.79,6.36-1.15,10.14-.82,3.78.34,7.81,1.49,11.92,3.15,4.12,1.66,8.33,3.88,12.76,6.16,4.43,2.27,9.14,4.6,14.33,6.12,2.59.75,5.29,1.35,8.07,1.54,2.77.18,5.63.04,8.39-.68,2.77-.69,5.36-1.87,7.78-3.27,2.41-1.4,4.64-3.01,6.8-4.66,4.3-3.28,8.36-6.64,12.73-9.12,1.1-.59,2.19-1.18,3.33-1.62.56-.23,1.12-.49,1.68-.7.58-.18,1.15-.36,1.71-.54,2.27-.71,4.56-1.06,6.77-1.28,4.45-.38,8.62.15,12.28,1.12,3.29.89,6.44,2.23,9.37,3.97l1.84,1.16c.55.42,1.09.82,1.61,1.21.25.19.51.38.75.57.23.21.45.41.66.6.43.4.85.77,1.24,1.12,1.49,1.5,2.57,2.74,3.2,3.66.32.43.57.78.74,1.02.16.24.24.36.24.36h0ZM501.61,262.83s-.13.07-.38.16c-.3.1-.67.23-1.12.39-.59.21-1.19.39-1.8.53-.71.17-1.52.41-2.43.56-.46.09-.93.17-1.42.27-.5.09-1.02.13-1.56.21-1.08.16-2.24.21-3.46.29-2.65.09-5.31-.04-7.94-.4-2.63-.4-5.21-1.02-7.74-1.84-1.15-.42-2.26-.79-3.24-1.25-.5-.22-.99-.41-1.44-.64-.45-.23-.88-.45-1.3-.66-.84-.4-1.54-.86-2.17-1.22-.55-.31-1.07-.65-1.58-1.01-.39-.28-.71-.5-.97-.69-.22-.16-.33-.25-.32-.26,0,0,.13.05.37.19.27.17.6.37,1.01.62.43.28.96.61,1.61.95.64.35,1.35.78,2.19,1.16.41.2.85.41,1.3.62.45.21.94.4,1.44.61.99.44,2.08.8,3.23,1.2,2.51.8,5.08,1.4,7.68,1.8,2.78.38,5.44.49,7.87.44,1.21-.06,2.36-.1,3.43-.25.54-.06,1.06-.1,1.55-.18.49-.08.97-.17,1.42-.24.91-.13,1.72-.35,2.43-.5.72-.14,1.32-.32,1.82-.46.46-.13.84-.23,1.15-.31.24-.06.39-.1.39-.08h0Z"/>
      <path class="cls-7" d="M336.84,146.93l-5.54-.86-34.32-11.07-20.07-5.8c-4.69-1.62-10.77-2.18-17.37,1.18-9.48,4.84-35.65,29.18-35.65,29.18l18.84,19.43-8.88,39.31c9.93,28.23,29.37,31.47,29.37,31.47,0,0,12.77,1.15,27.85-4.61,18.06-6.88,37.01-23.02,39.38-29.96,1.42-4.16,2.6-12.91,3.54-22.8l28.58-11.65,7.75-39.54-33.48,5.71h0Z"/>
      <path class="cls-2" d="M295.09,216.91s-.09.1-.28.24c-.2.14-.47.38-.86.62-.76.52-1.91,1.2-3.43,1.84-3.01,1.3-7.7,2.27-12.67,1.2-4.98-1.09-8.84-3.93-11.03-6.37-1.12-1.22-1.88-2.32-2.35-3.11-.25-.39-.4-.71-.51-.93-.11-.21-.17-.33-.15-.34.03-.02.29.42.8,1.18.51.76,1.3,1.82,2.43,3,2.21,2.35,6.03,5.1,10.9,6.16,4.87,1.06,9.49.15,12.48-1.06,1.2-.47,2.35-1.04,3.46-1.71.78-.48,1.2-.77,1.22-.74h0ZM284.24,136.62s.03.06.06.19c.04.15.09.33.14.56.12.49.29,1.23.48,2.17.38,1.89.95,4.64,1.13,8.1.07,1.73.04,3.64-.32,5.65-.36,2.01-1.08,4.12-2.26,6.09-1.19,1.98-2.83,3.78-4.69,5.44-1.86,1.66-3.92,3.21-6.01,4.8-4.45,3.35-8.8,6.38-12.68,9.13-3.89,2.75-7.3,5.22-10.04,7.3l-.09.06-.09-.06c-2.45-1.98-4.3-3.69-5.5-4.95-.59-.63-1.02-1.15-1.29-1.52-.13-.18-.21-.33-.28-.43-.05-.1-.09-.15-.08-.16.02,0,.15.19.42.54.29.35.72.85,1.33,1.46,1.22,1.22,3.1,2.89,5.56,4.84h-.17c2.71-2.1,6.12-4.61,9.99-7.38,3.87-2.77,8.2-5.81,12.65-9.15,2.09-1.59,4.15-3.13,5.99-4.76,1.84-1.64,3.46-3.4,4.64-5.33,1.1-1.84,1.86-3.85,2.24-5.96.37-1.98.42-3.87.37-5.58-.14-3.43-.66-6.18-1-8.08-.17-.92-.31-1.65-.41-2.18-.04-.23-.07-.42-.1-.57,0-.13,0-.19,0-.19h0ZM433.25,154.44c8.04-6.88,10.75-19.29,6.34-28.91-3.77-.39-7.55-.78-11.32-1.17,5.74-3.01,9.21-9.88,8.23-16.29-6.1,6.58-16.66,8.53-24.71,4.55-5.29-2.61-9.57-7.48-15.38-8.5-5.27-.93-10.45,1.54-15.5,3.34-5.04,1.8-11.16,2.79-15.33-.56-3.32-2.65-4.34-7.3-4.12-11.54.21-4.24,1.44-8.37,1.7-12.61.52-8.31-3.09-16.68-9.17-22.33-1.91-6.03-6.47-11.23-12.32-13.7-7.07-2.99-15.72-1.86-21.79,2.84-2.48,1.92-4.57,4.39-7.38,5.78-3.17,1.57-6.86,1.57-10.29,2.41-3.43.85-7.03,3.12-7.41,6.64l-1.38,7.21c-.23.52-.48,1.03-.76,1.52-2.92,5.12-8.89,8.48-10.18,14.23-.73,3.22.17,6.71-.91,9.83-1.43,4.11-5.86,6.42-7.93,10.24-2.83,5.25-.91,14.45,3.62,18.33,4.53,3.89,13.88,7.99,19.72,9.24,1.58-6.07,2.98-12.56,4.34-19.2,2.38,2.29,4.87,4.46,7.36,6.62,6.5,5.65,13.14,11.39,17.65,18.72,8.57,13.94,8.71,32.43,19.5,44.73,2.11,2.41,4.68,4.57,7.75,5.49,3.07.93,6.71.43,8.98-1.83,2.68-2.68,3.03-7.19,5.99-9.54,3.94-3.13,9.7-.63,13.94,2.08,3.07,1.96,6.13,4.04,9.61,5.11,3.48,1.08,7.52,1.01,10.48-1.12,2.96-2.12,4.26-6.65,2.12-9.6-.85-1.18-2.13-2-2.98-3.19-.85-1.19-1.09-3.06.06-3.94,1.28-.97,3.07-.03,4.46.78,6.77,3.98,15.33,4.74,22.69,2,7.36-2.74,13.35-8.91,15.87-16.34-3.88.6-7.92.13-11.56-1.35h0Z"/>
      <path class="cls-7" d="M360.03,66.97s-.22-.03-.61-.16c-.39-.12-.93-.34-1.58-.64-1.31-.6-3.05-1.62-4.72-3.06-1.67-1.44-2.94-3.01-3.73-4.21-.32-.47-.61-.97-.87-1.47-.18-.36-.27-.56-.24-.58.06-.03.51.74,1.35,1.88,1.1,1.49,2.36,2.85,3.76,4.07,1.41,1.2,2.94,2.25,4.58,3.11,1.27.67,2.11,1,2.07,1.06ZM386.34,120.95s-.5-.12-1.39-.32c-.89-.2-2.21-.4-3.84-.47-1.64-.07-3.58,0-5.75.17-2.17.15-4.56.37-7.08.32-2.52-.06-4.95-.44-6.99-1.31-2.03-.86-3.62-2.14-4.68-3.42-1.06-1.29-1.59-2.57-1.8-3.47-.1-.45-.16-.81-.17-1.05-.02-.25-.02-.37,0-.37.05,0,.07.51.32,1.39.25.87.81,2.09,1.87,3.32,1.05,1.23,2.63,2.44,4.61,3.26,1.99.82,4.36,1.19,6.84,1.25,2.49.06,4.87-.15,7.04-.29,2.17-.14,4.14-.18,5.79-.08,1.65.11,2.98.36,3.86.61.44.13.78.23,1.01.32.24.08.36.13.36.14h0ZM432.96,156.93s-.07.04-.23.1c-.16.06-.39.17-.7.23-.63.15-1.63.23-2.83-.13-1.19-.36-2.56-1.12-3.8-2.4-1.27-1.26-2.2-3.09-3.05-5.12-.86-2.03-1.59-4.36-3-6.51-.67-1.1-1.56-2.09-2.51-3.06-1.01-.92-2.11-1.81-3.36-2.54-4.97-2.99-11.5-4.23-18.16-3.83-6.7.35-13,1.66-18.83,2.07-5.82.52-11.17-.12-15.36-1.59-4.21-1.44-7.15-3.69-8.8-5.51-.43-.44-.76-.89-1.05-1.26-.25-.31-.49-.64-.69-.99-.16-.26-.29-.47-.39-.63-.09-.14-.13-.22-.12-.22s.05.06.16.2c.1.16.24.36.42.61.17.27.4.6.71.96.3.36.63.8,1.08,1.23,1.67,1.78,4.61,3.96,8.77,5.35,4.15,1.42,9.44,2.03,15.23,1.48,5.8-.43,12.1-1.75,18.85-2.1,6.72-.4,13.33.85,18.38,3.92,1.27.74,2.38,1.66,3.41,2.6.97,1,1.88,2.02,2.55,3.14,1.43,2.21,2.14,4.56,2.98,6.58.82,2.03,1.72,3.83,2.95,5.07,1.2,1.26,2.52,2.03,3.68,2.4,1.16.37,2.14.32,2.77.2.62-.12.93-.29.93-.25Z"/>
      <path class="cls-10" d="M308.52,66.97c-3.07-.08-5.69,2.2-6.03,5.25l-6.4,66.64c-1.11,9.37,11.15,29.46,21.19,30.57,10.14,1.12,11.13-3.8,12.45-12.68,2.2-14.84,2.93-20.42,2.93-20.33,0,0,13.05-.43,17.9-16.76,2.41-8.12,3.78-21.77,4.55-32.97.69-10.09-4.32-23.23-14.42-23.49l-32.16,3.77Z"/>
      <path class="cls-2" d="M350.69,95.53c-.11,1.13-1.16,1.98-2.34,1.88-1.19-.1-2.06-1.08-1.95-2.22.11-1.13,1.15-1.98,2.34-1.88,1.19.09,2.06,1.08,1.95,2.22ZM351.6,91.22c-.24.3-1.96-.79-4.27-.62-2.32.13-3.93,1.44-4.2,1.18-.14-.12.1-.64.81-1.24.69-.58,1.9-1.19,3.34-1.29s2.69.36,3.43.85c.74.5,1.02.99.9,1.12ZM330.33,96.73c-.28.28-1.88-.98-4.19-1.04-2.32-.1-4.05,1.05-4.3.76-.12-.13.17-.63.93-1.15.74-.51,2-1,3.45-.96,1.45.05,2.64.62,3.33,1.18.69.58.92,1.09.78,1.21ZM334.65,108.99c0-.14,1.47-.19,3.82-.18.59.02,1.17-.02,1.32-.41.2-.4.03-1.07-.17-1.8-.36-1.5-.74-3.06-1.15-4.7-1.58-6.69-2.63-12.15-2.36-12.22.27-.06,1.77,5.31,3.34,12,.37,1.65.74,3.22,1.07,4.72.14.7.42,1.5,0,2.34-.21.42-.69.68-1.08.73-.39.06-.72.03-1.01,0-2.35-.17-3.8-.35-3.79-.48Z"/>
      <path class="cls-11" d="M332.65,136.43s-11.32-.75-21.55-8.89c0,0,4.12,12.21,21.02,12.84l.53-3.95Z"/>
      <path class="cls-2" d="M330.65,92.77c-.36.56-2.56-.25-5.28-.56-2.72-.36-5.04-.08-5.26-.71-.1-.3.41-.79,1.42-1.19,1-.4,2.49-.64,4.13-.44,1.63.2,3.03.79,3.9,1.41.88.63,1.26,1.23,1.09,1.5ZM351.25,88.11c-.38.55-2,.08-3.92.16-1.92,0-3.53.54-3.93,0-.17-.26.05-.8.74-1.34.67-.53,1.83-1,3.15-1.03,1.32-.02,2.49.4,3.18.9.71.51.96,1.04.79,1.31h0Z"/>
      <path class="cls-11" d="M329.05,113.19c1.06-.71,2.36-.99,3.62-.76.63.12,1.27.38,1.68.88.55.65.61,1.57.59,2.42-.02.51-.05,1.03-.23,1.5-.17.47-.51.92-.96,1.13-.48.22-1.03.17-1.55.08-.86-.14-1.73-.39-2.45-.89-.72-.49-1.28-1.27-1.37-2.14-.08-.87.4-1.81,1.23-2.11"/>
      <path class="cls-2" d="M335.29,118.27c-.17.06-.48-.44-1.03-1.14-.55-.7-1.4-1.57-2.54-2.22-1.14-.65-2.33-.93-3.2-1.05-.88-.13-1.47-.13-1.5-.31-.04-.16.51-.47,1.52-.57.99-.1,2.44.07,3.81.86,1.36.78,2.26,1.93,2.67,2.84.42.92.43,1.55.28,1.6h0ZM295.19,134.28c5.49-1.09,9.73-5.82,11.62-11.09,1.89-5.27,1.8-11.04,1.29-16.62-.06-.72-.18-1.52-.75-1.96-.83-.64-2.02-.12-2.92.43-3.47,2.11-6.79,4.45-9.95,7-2.94,2.37-5.86,5.1-6.99,8.7-1.73,5.53,1.93,12.14,7.54,13.6"/>
      <path class="cls-10" d="M421.6,132.99l-25.94-41.69-7.17-14.67s-2.29-3.03-4.66-5.62c-3.9-4.25-7.75-.95-7.75-.95,0,0-.56-1.62-2.6-1.61-2.44.02-3.58,1.83-3.58,1.83,0,0-1.06-1.18-4-1.36-.63-.04-1.27.21-1.87.6-.96-.85-2.73-2.07-4.44-1.45-1.33.48-9.39,6.62-11.38,9.7-.98,1.53.84,3.5,3.29,2.58,1.08-.41,2.16-.74,2.94-1.19,1.31-.77,1.99-1.61,1.99-1.61,0,0-2.03,3.56,0,4.19.85.26,2.64.07,3.81-.93.77-.66,1.67-1.5,2.52-2.33-.03.05-.07.1-.1.14-1.12,1.66,1.8,4.12,3.23,3.12.66-.46,1.29-.96,1.89-1.5,3.29,2.39-1.28,5.45-3.21,5.29-2.99-.25-6.49-.23-8.92-.03-1.68.14-3.18.54-4.08,1.47-1.09,1.12.05,3.48,1.6,3.72,2.84.43,6.46,1.07,10.23,2.04,4.44,1.14,16.04,4.92,16.04,4.92l1.13.92,15.78,38.47-27.01,5.72-6.03,34.22,48.74-13.22c11-5.72,16.2-20.34,9.56-30.78h0Z"/>
      <path class="cls-11" d="M379.45,97.67s-.21-.04-.62-.15c-.44-.13-1.02-.29-1.75-.5-2.14-.63-4.27-1.27-6.41-1.91-1.35-.41-2.83-.86-4.42-1.34-1.59-.49-3.28-1-5.1-1.46-1.8-.46-3.71-.92-5.71-1.18-.97-.15-2.07-.06-3.1-.56-.27-.12-.5-.3-.7-.52-.11-.13-.19-.27-.24-.43l-.06-.42c-.06-.54-.07-1.11.1-1.68.18-.57.62-1.04,1.12-1.3.49-.28,1.01-.43,1.51-.6,1.04-.33,2.1-.39,3.12-.39,2.06.02,4,.31,5.85.24.9-.02,1.8-.11,2.68-.26.86-.16,1.68-.38,2.49-.58,1.6-.43,3.17-.74,4.61-.59,1.43.12,2.67.52,3.72.95,1.04.43,1.9.89,2.6,1.27.69.39,1.21.71,1.57.93.35.22.53.35.52.36,0,.02-.21-.09-.57-.29-.4-.21-.93-.5-1.6-.86-.7-.36-1.56-.8-2.6-1.2-1.04-.4-2.26-.78-3.66-.87-1.39-.13-2.9.19-4.5.62-.8.21-1.63.45-2.52.62-.89.17-1.8.25-2.74.28-1.89.09-3.85-.19-5.86-.21-1.01,0-2.03.06-3,.37-.96.32-2.07.66-2.36,1.64-.15.47-.14.99-.09,1.5l.05.36c.02.08.09.18.15.26.15.17.35.31.56.41.89.44,1.95.37,2.97.52,2.03.27,3.95.74,5.75,1.21,1.71.45,3.41.95,5.1,1.5,1.58.5,3.05.96,4.41,1.39,2.66.85,4.83,1.54,6.38,2.03.72.24,1.3.43,1.73.57.42.16.62.24.62.25ZM359.46,68.14c.04.06-1.22.8-3.09,2.21-1.09.83-2.13,1.72-3.1,2.69-1.11,1.08-2.27,2.34-3.65,3.52-.67.57-1.3,1.19-1.46,1.96-.08.37-.05.76.13,1.06.17.31.48.51.82.63.69.23,1.42.17,2.09.04.62-.12,1.23-.29,1.81-.52,2.16-.88,3.16-2.03,3.21-1.95.02.02-.21.3-.71.74-.72.61-1.52,1.11-2.39,1.48-.6.26-1.22.45-1.86.58-.68.14-1.47.24-2.28-.02-.4-.13-.8-.39-1.04-.79-.24-.4-.29-.89-.2-1.35.18-.93.92-1.61,1.59-2.18,1.35-1.16,2.52-2.41,3.65-3.48,1.68-1.6,3.54-3,5.55-4.16.59-.32.92-.48.93-.46Z"/>
      <path class="cls-11" d="M369.35,71.42s-.31.4-.92,1.09c-.66.73-1.54,1.69-2.6,2.86-1.3,1.4-2.6,2.81-3.9,4.21-.75.81-1.65,1.56-2.74,2.09-.55.26-1.15.46-1.81.45-.65-.01-1.33-.21-1.82-.73-.26-.27-.39-.63-.43-.99.74-.86,1.89-1.25,3-1.02.18-.64.48-1.2.84-1.73h0s.02-.02.02-.02c1.3-1.38,2.58-2.76,3.86-4.15,1.19-1.26,2.33-2.29,3.25-3.17.46-.44.89-.85,1.35-1.09.48-.25.93-.24,1.28-.28.7-.05,1.11.02,1.08.09.02-.03-.37-.04-1.06.05-.33.06-.79.08-1.19.32-.42.24-.82.65-1.27,1.1-.9.9-2.02,1.95-3.18,3.21-1.26,1.41-2.54,2.81-3.83,4.2l.02-.02c-.34.49-.6,1.03-.77,1.6-.08.28-.11.58-.1.87.04.28.13.55.32.75.36.4.97.59,1.52.59.57,0,1.12-.17,1.64-.41,1.02-.49,1.91-1.22,2.64-1.99,1.48-1.55,2.83-2.95,3.96-4.15.9-.92,1.8-1.85,2.7-2.78.29-.29.55-.54.75-.74.18-.13.28-.21.29-.21h-2.9ZM381.47,75.23s-.04.24-.32.46c-.27.21-.76.42-1.31.32-.46-.08-.87-.35-1.12-.75-.18-.3-.19-.52-.13-.54.05-.02.16.15.36.36.21.21.55.45.96.52.42.07.82-.04,1.08-.17.27-.12.43-.25.48-.21h0Z"/>
      <path class="cls-11" d="M382.42,78.86c-.09.07-.68-.52-1.2-1.41-.52-.89-.76-1.69-.66-1.73.11-.05.51.67,1.01,1.53.5.85.93,1.54.85,1.61h0ZM384.17,93.01s-.39-.59-.75-1.65c-.36-1.06-.67-2.6-.65-4.33.02-1.72.38-3.25.77-4.3.39-1.05.75-1.65.79-1.63.14.04-1.12,2.56-1.15,5.94-.07,3.38,1.12,5.93.99,5.97h0ZM405.47,147.84c-.08,0-.16-.84-.57-2.13-.2-.65-.52-1.38-.93-2.18-.47-.84-1.02-1.64-1.65-2.37-.64-.72-1.36-1.37-2.14-1.95-.73-.51-1.42-.93-2.03-1.21-1.23-.58-2.06-.76-2.03-.84,0-.03.21,0,.59.08.38.07.92.24,1.56.49.65.25,1.38.65,2.14,1.16.75.53,1.52,1.2,2.22,1.99.7.8,1.25,1.65,1.68,2.46.41.82.71,1.6.88,2.27.17.67.27,1.23.29,1.61.03.4.03.61,0,.61h0Z"/>
      <path class="cls-10" d="M314.97,224.06c-3.46-.72-6.58.84-6.58.84-3.52-1.56-7.86,1.13-7.86,1.13-1.27-.61-8.95,4.41-8.95,4.41l-9.56,4.51-51.06-37.94,14.47-15.06-20.28-21.1-23.77,24.46c-2.96,3.05-4.46,7.18-4.74,11.51-.6,9.3,4.7,17.98,13.01,22.19l60.17,30.86s6.38-.22,13.68-2.13c5.19-1.35,14.06-5.29,14.06-5.29,0,0-.02.27,1.56,3.34,2.86,5.53,7.04-.44,7.04-.44,0,0,.86,1.96,1.62,2.71,3.62,3.51,6.12-1.2,6.12-1.2,0,0,1.08,1.89,4.32.48,3.22-1.4-.47-11.13-.47-11.13,0,0,1.08,2.11,3.18-.56,2.09-2.68-2.51-10.87-5.97-11.59h0Z"/>
      <path class="cls-11" d="M307.74,225.39s.21-.14.67-.25c.44-.12,1.14-.15,1.94.05.8.21,1.69.65,2.55,1.31.46.34.89.72,1.27,1.14.4.45.71.99,1,1.54.94,1.89,1.72,3.85,2.33,5.86.24.78.4,1.41.5,1.84.1.44.13.69.11.7-.06.02-.35-.94-.88-2.45-.7-1.97-1.51-3.89-2.43-5.77-.27-.54-.57-1.04-.93-1.46-.37-.4-.77-.77-1.2-1.1-.82-.65-1.66-1.09-2.41-1.33-1.53-.48-2.52.02-2.52-.08h0ZM313.89,246.85s-.18-.3-.44-.88c-.3-.65-.67-1.46-1.12-2.42-.94-2.05-2.32-4.84-3.63-8.04-.64-1.6-1.23-3.13-2.08-4.32-.74-1.07-1.75-1.92-2.94-2.45-1.01-.47-1.93-.53-2.53-.45-.61.08-.93.24-.95.21,0-.02.07-.05.22-.13.15-.08.39-.17.7-.23.62-.13,1.61-.1,2.67.34,1.26.52,2.34,1.39,3.13,2.49.9,1.23,1.51,2.8,2.15,4.39,1.31,3.17,2.64,5.99,3.52,8.08.44,1.04.78,1.89,1,2.49.21.59.31.93.29.93h0ZM290.45,234.64s.28-.19.82-.45c.62-.3,1.38-.66,2.29-1.1.49-.23,1.01-.48,1.6-.74.65-.26,1.35-.36,2.05-.3.78.07,1.52.36,2.14.82.65.5,1.13,1.17,1.57,1.88.44.71.78,1.44,1.11,2.13.34.69.69,1.34,1.03,1.96.69,1.23,1.34,2.33,1.82,3.29.39.76.73,1.54,1.01,2.33.2.57.28.89.25.9-.07.02-.5-1.23-1.53-3.09-.51-.93-1.18-2.02-1.89-3.24-.37-.64-.73-1.3-1.06-1.96-.35-.7-.68-1.41-1.1-2.09-.42-.68-.89-1.32-1.46-1.76-.57-.42-1.24-.69-1.94-.77-.64-.07-1.29.01-1.89.24-.57.23-1.11.48-1.6.68-.93.39-1.7.71-2.33.98-.56.22-.87.33-.89.3ZM291.57,230.44s-.24.18-.7.44c-.65.37-1.31.72-1.97,1.07-2.18,1.15-4.37,2.27-6.58,3.38-2.2,1.11-4.41,2.2-6.63,3.28-.85.41-1.55.74-2.03.95-.48.21-.76.32-.77.29-.02-.02.24-.18.7-.44.65-.37,1.31-.72,1.97-1.07,2.18-1.15,4.37-2.27,6.58-3.38,2.2-1.11,4.41-2.2,6.63-3.28.67-.33,1.35-.65,2.03-.95.48-.21.76-.32.77-.29h0ZM231.63,197.09c-.02.13-2.7-.61-6.03-.2-3.33.37-5.77,1.73-5.82,1.6-.02-.04.55-.44,1.57-.89,1.02-.45,2.5-.93,4.2-1.12,1.69-.2,3.25-.09,4.34.11,1.1.21,1.74.45,1.73.5Z"/>
      <path class="cls-2" d="M344.38,60.01c-12.65-.17-25.27,1.16-37.61,3.97-2.86.65-5.88,1.49-7.81,3.7-2.04,2.33-2.41,5.65-2.67,8.74-.32,3.76-.65,7.52-.98,11.28-.54.93-1.15,1.83-1.8,2.69-2.98,3.89-6.77,7.12-9.47,11.21-2.71,4.07-4.2,9.5-1.99,13.86,1.33,2.64,3.81,4.5,5.61,6.85,3.06,3.98,4.06,9.11,5.85,13.8s5.02,9.47,9.95,10.41c2.35.45,4.8-.05,7.16.3,3.54.51,6.51,2.83,9.33,5.04,2.82,2.21,5.86,4.46,9.42,4.81,3.56.36,7.64-2.06,7.71-5.63-2.61,1.52-6.08,1.42-8.6-.24-2.07-1.36-3.41-3.58-5.19-5.31-4.37-4.24-11.42-5.59-14.46-10.87-2.41-4.18-1.45-9.4-.36-14.09.95-4.07,1.91-8.48.74-12.39.09-.62.14-1.27.14-1.9.03-4.16-1.62-8.62.32-12.31,2.56-4.88,9.95-5.48,12.54-10.34,1.5-2.82.97-6.43,2.62-9.17,1.55-2.58,4.64-3.77,7.58-4.41,2.93-.64,6.04-.93,8.64-2.45,2.6-1.52,4.53-4.77,3.36-7.54h0Z"/>
      <path class="cls-2" d="M353.98,144.92s-.03.07-.12.2c-.1.14-.23.32-.39.55-.36.48-.95,1.12-1.82,1.84-1.09.84-2.31,1.5-3.61,1.94-1.73.6-3.57.81-5.39.62-2.02-.17-4.2-.99-6.06-2.49-1.88-1.45-3.56-3.37-5.69-4.9-1.07-.75-2.29-1.35-3.62-1.52-1.35-.19-2.71.2-4.04.73-1.33.52-2.67,1.2-4.19,1.45-1.53.27-3.12-.1-4.5-.8-1.4-.69-2.63-1.61-3.81-2.52-1.18-.92-2.33-1.84-3.34-2.9-1.01-1.04-1.88-2.24-2.37-3.58-.52-1.34-.55-2.79-.27-4.12.26-1.33.74-2.54,1.2-3.71.44-1.13.84-2.28,1.2-3.43.63-2.08,1.12-4.21,1.46-6.36.62-3.95.62-7.21.51-9.44-.03-.86-.09-1.72-.18-2.57-.02-.28-.05-.5-.06-.67,0-.15-.02-.23,0-.23,0,0,.02.07.05.22.02.17.05.39.1.67.09.58.18,1.45.26,2.57.21,3.17.08,6.35-.38,9.5-.32,2.17-.8,4.31-1.42,6.42-.35,1.17-.75,2.33-1.2,3.47-.44,1.17-.91,2.37-1.16,3.66-.25,1.27-.23,2.63.27,3.9.47,1.27,1.31,2.41,2.3,3.43.99,1.03,2.13,1.95,3.3,2.86,1.17.91,2.38,1.81,3.73,2.48,1.34.67,2.83,1.01,4.27.77,1.43-.23,2.76-.89,4.11-1.42,1.34-.54,2.79-.95,4.23-.74,1.42.18,2.71.83,3.8,1.6,2.18,1.58,3.84,3.51,5.68,4.95,1.81,1.48,3.91,2.28,5.88,2.46,1.97.23,3.79-.06,5.29-.55,1.29-.41,2.5-1.04,3.58-1.84,1.76-1.39,2.36-2.52,2.41-2.48h0Z"/>
      <path class="cls-7" d="M274.92,119.75s-.25-.28-.63-.87c-.37-.6-.84-1.56-1.12-2.88-.29-1.32-.32-3.01.08-4.89.47-2.13,1.41-4.14,2.74-5.87,1.46-1.93,3.43-3.73,5.71-5.4,2.27-1.68,4.85-3.26,7.42-5.1,2.55-1.84,5.16-3.98,7.04-6.85.95-1.42,1.62-3.03,2.14-4.72.51-1.69.86-3.47,1.27-5.25.4-1.79.87-3.56,1.6-5.21.71-1.65,1.77-3.16,3.11-4.3,1.34-1.14,2.9-1.95,4.49-2.47,1.59-.54,3.22-.82,4.81-.95,3.19-.28,6.21.08,9.02.29,2.81.23,5.43.36,7.8.1,2.14-.21,4.21-.82,6.12-1.82,1.66-.9,2.92-1.98,3.75-3.02.83-1.04,1.28-1.99,1.51-2.65.22-.67.31-1.03.33-1.02,0,0-.05.37-.25,1.05-.21.67-.64,1.65-1.47,2.72-.82,1.08-2.09,2.19-3.77,3.13-1.92,1.03-4.03,1.68-6.2,1.91-2.4.28-5.05.17-7.86-.05-2.81-.2-5.82-.53-8.96-.25-1.57.14-3.17.42-4.72.95-1.56.51-3.06,1.3-4.35,2.4-1.29,1.1-2.3,2.55-3,4.16-.71,1.61-1.17,3.36-1.58,5.14-.41,1.78-.76,3.56-1.27,5.28-.51,1.72-1.22,3.38-2.19,4.83-1.93,2.93-4.59,5.08-7.16,6.93-2.6,1.84-5.17,3.39-7.44,5.07-2.27,1.65-4.23,3.41-5.68,5.3-1.32,1.69-2.26,3.65-2.74,5.75-.41,1.84-.4,3.51-.14,4.81.52,2.61,1.68,3.72,1.59,3.76h0Z"/>
      <path class="cls-7" d="M277.24,123.91s-.98-.71-2.43-2.33c-.71-.82-1.55-1.88-2.11-3.36-.27-.73-.45-1.57-.36-2.48.08-.89.45-1.81,1.07-2.6,1.28-1.57,3.4-2.41,5.62-2.88,1.12-.24,2.29-.42,3.45-.7,1.16-.29,2.35-.69,3.37-1.4,1.01-.73,1.84-1.74,2.45-2.9.62-1.16,1.06-2.46,1.52-3.78.46-1.31.92-2.67,1.61-3.96.67-1.3,1.68-2.49,2.97-3.28,1.29-.8,2.72-1.24,4.12-1.61,1.4-.36,2.79-.66,4.09-1.1,2.64-.83,4.72-2.64,6.28-4.63,1.59-1.99,2.75-4.13,3.9-6.1,1.14-1.97,2.27-3.79,3.55-5.27,1.26-1.5,2.68-2.6,4.06-3.32,1.39-.72,2.71-1.04,3.79-1.15,1.09-.09,1.95.05,2.49.21.55.15.82.29.82.29,0,.02-.29-.09-.84-.21-.55-.13-1.39-.23-2.46-.13-1.07.12-2.35.47-3.7,1.19-1.35.72-2.72,1.82-3.95,3.3-1.24,1.46-2.36,3.28-3.48,5.25-1.13,1.97-2.29,4.14-3.9,6.17-.8,1.01-1.72,1.99-2.79,2.82-1.1.86-2.34,1.52-3.66,1.95-1.34.46-2.73.75-4.11,1.12-1.38.36-2.78.8-4,1.56-1.23.76-2.18,1.88-2.83,3.13-.67,1.25-1.13,2.59-1.59,3.9-.46,1.31-.9,2.63-1.55,3.83-.63,1.2-1.5,2.27-2.59,3.04-1.08.75-2.32,1.15-3.51,1.44s-2.36.46-3.46.69c-2.19.44-4.25,1.26-5.47,2.73-.57.7-.93,1.54-1.04,2.44-.1.85.06,1.66.32,2.37.52,1.42,1.34,2.5,2.02,3.32.7.82,1.29,1.42,1.69,1.82.19.18.34.33.47.45.12.1.17.16.17.17h0Z"/>
      <path class="cls-11" d="M374.65,72.79s-.13.24-.41.61c-.29.38-.71.91-1.25,1.56-1.41,1.69-2.89,3.31-4.45,4.87-.9.88-1.75,1.88-2.91,2.25-.56.17-1.16.18-1.67-.02-.51-.2-.86-.59-1.08-.98-.43-.8-.36-1.55-.3-2.01.07-.47.17-.72.19-.71.03,0,0,.27-.03.73,0,.45-.02,1.16.39,1.85.21.34.51.66.94.81.42.15.94.14,1.43-.02,1.01-.32,1.83-1.28,2.74-2.18,1.54-1.55,3.05-3.14,4.52-4.76,1.15-1.25,1.84-2.03,1.89-1.99h0Z"/>
      <path class="cls-11" d="M380.69,72.79s-.15.24-.48.62c-.32.38-.81.92-1.41,1.57-.63.68-1.35,1.46-2.13,2.3-.4.44-.83.89-1.27,1.35-.44.47-.91.96-1.49,1.37-.57.41-1.23.72-1.93.77-.69.06-1.42-.23-1.8-.78-.19-.27-.29-.59-.29-.92,0-.32.13-.61.27-.85.29-.47.59-.84.85-1.2.53-.72.97-1.3,1.27-1.69.31-.4.49-.6.51-.59.02.02-.11.26-.38.68-.27.42-.67,1.03-1.16,1.76-.24.37-.55.78-.79,1.2-.25.43-.29.95.03,1.38.31.43.87.66,1.46.6.59-.04,1.19-.32,1.72-.7s.99-.86,1.43-1.31l1.28-1.33c.81-.82,1.54-1.57,2.19-2.24.49-.5,1-1,1.5-1.49.36-.36.57-.54.59-.51h0Z"/>
      <path class="cls-12" d="M463.3,315.05c1.35-2.94,4.21-5.14,7.4-5.7s6.62.56,8.89,2.88c-1.54,2.75-4.31,4.57-7.29,5.6-3.5,1.2-7.3-.21-9-2.78Z"/>
      <path class="cls-2" d="M457.68,316.35s.85-.36,2.27-.71c1.43-.35,3.42-.74,5.63-1.11,2.21-.36,4.23-.64,5.68-.81,1.46-.17,2.37-.24,2.37-.18,0,.06-.89.23-2.33.48-1.58.26-3.51.58-5.66.93-2.21.36-4.2.71-5.64.98-1.43.28-2.31.49-2.33.43h0Z"/>
      <path class="cls-12" d="M180.5,264.95c3.35,2.76,5.2,7.27,4.73,11.59-.47,4.32-3.22,8.33-7.09,10.32-2.9-7.45-4.02-15.46,2.36-21.91ZM191.5,270.67c.31,5.62,3.59,10.99,8.46,13.82,4.87,2.83,11.16,3.03,16.19.52-5.53-8.74-13.03-16.04-24.65-14.33h0Z"/>
      <path class="cls-2" d="M166.28,243.14s.13.13.36.4c.25.3.58.7.99,1.18.85,1.04,2.07,2.53,3.62,4.35,3.09,3.64,7.45,8.59,12.58,13.76,2.42,2.42,4.9,4.78,7.45,7.07,2.37,2.09,4.56,3.9,6.45,5.34,1.91,1.42,3.5,2.52,4.66,3.17,1.15.68,1.83.96,1.81,1.01,0,.02-.17-.05-.5-.19-.32-.14-.81-.33-1.38-.67-1.2-.61-2.81-1.69-4.76-3.08-1.93-1.42-4.14-3.21-6.53-5.29-2.56-2.28-5.06-4.63-7.49-7.06-4.38-4.42-8.56-9.05-12.51-13.87-1.2-1.45-2.38-2.93-3.52-4.43-.38-.51-.69-.91-.93-1.23-.21-.28-.32-.44-.31-.45h0Z"/>
      <path class="cls-2" d="M179.88,276.21c-.07-.02.2-1.12.42-2.91.23-1.8.36-4.3.08-7.05-.25-2.34-.76-4.65-1.53-6.88-.59-1.71-1.08-2.73-1.01-2.76.02-.02.17.23.4.69.24.45.55,1.12.88,1.98.67,1.7,1.37,4.15,1.67,6.94.29,2.79.1,5.33-.2,7.14-.15.9-.31,1.63-.45,2.12-.15.48-.24.75-.26.74h0Z"/>
      <path class="cls-12" d="M529.06,116.07c-1.95-2.59-2.53-6.15-1.5-9.22,1.03-3.07,3.63-5.57,6.75-6.46,1.68,2.66,1.98,5.96,1.47,9.07-.6,3.66-3.66,6.34-6.72,6.61h0Z"/>
      <path class="cls-2" d="M527.54,121.64c-.05,0,.08-.92.46-2.34.37-1.42.97-3.36,1.7-5.48.73-2.12,1.44-4.02,1.98-5.38.54-1.37.91-2.19.97-2.18.05.02-.22.89-.69,2.28-.52,1.51-1.16,3.36-1.87,5.42-.62,1.8-1.23,3.61-1.81,5.43-.45,1.39-.68,2.26-.74,2.26h0Z"/>
      <path class="cls-12" d="M494.2,174.94c-1.63-6.05-.1-12.86,3.96-17.62,4.07-4.76,10.55-7.36,16.77-6.7,1.1,5.98-.76,12.12-3.92,17.33-3.73,6.12-11.13,8.73-16.82,7h0Z"/>
      <path class="cls-2" d="M470.82,198.36s.1-.16.33-.43c.26-.3.6-.68,1.02-1.16.91-1,2.23-2.42,3.89-4.16,3.32-3.48,7.95-8.24,13.11-13.46,4.4-4.46,8.83-8.89,13.28-13.3,1.69-1.66,3.07-3.01,4.07-3.99.46-.44.83-.8,1.12-1.07.26-.24.4-.36.41-.36,0,0-.11.15-.35.41-.27.29-.62.66-1.07,1.12-.97,1-2.32,2.38-3.97,4.08-3.4,3.46-8.05,8.17-13.19,13.39-5.14,5.21-9.79,9.92-13.2,13.37-1.65,1.69-3.01,3.07-3.99,4.07-.44.46-.81.82-1.08,1.11-.24.25-.38.38-.39.37h0Z"/>
      <path class="cls-9" d="M494.2,174.94c-1.63-6.05-.1-12.86,3.96-17.62,4.07-4.76,10.55-7.36,16.77-6.7,1.1,5.98-.76,12.12-3.92,17.33-3.73,6.12-11.13,8.73-16.82,7h0Z"/>
      <path class="cls-12" d="M483.39,177.29c-3.42-1.76-5.88-5.27-6.36-9.09-.48-3.81,1.01-7.83,3.89-10.38,3.17,1.97,5.19,5.36,6.25,8.93,1.24,4.23-.64,8.66-3.77,10.53h0Z"/>
      <path class="cls-9" d="M483.39,177.29c-3.42-1.76-5.88-5.27-6.36-9.09-.48-3.81,1.01-7.83,3.89-10.38,3.17,1.97,5.19,5.36,6.25,8.93,1.24,4.23-.64,8.66-3.77,10.53h0Z"/>
      <path class="cls-2" d="M484.63,184.03s-.11-.25-.24-.72c-.14-.48-.29-1.16-.45-2.02-.33-1.72-.68-4.1-1-6.74-.27-2.25-.49-4.51-.67-6.77-.14-1.74-.17-2.82-.12-2.82.06,0,.2,1.06.4,2.79.21,1.84.48,4.18.78,6.76.32,2.63.62,5.02.88,6.74.26,1.71.48,2.76.41,2.78h0Z"/>
      <path class="cls-12" d="M335.22,269.01c2.41-5.69,7.81-10.01,13.89-11.12s12.65,1.04,16.91,5.51c-8.97,6.96-19.44,11.7-30.8,5.61h0Z"/>
      <path class="cls-9" d="M335.22,269.01c2.41-5.69,7.81-10.01,13.89-11.12s12.65,1.04,16.91,5.51c-8.97,6.96-19.44,11.7-30.8,5.61h0Z"/>
      <path class="cls-2" d="M330.15,271.79s.24-.22.71-.55c.67-.47,1.36-.91,2.07-1.31,1.79-1.05,4.38-2.32,7.4-3.32,3.02-.99,5.86-1.51,7.92-1.73.81-.09,1.63-.15,2.45-.17.58-.02.9,0,.9.02,0,.07-1.27.15-3.32.44-2.66.39-5.27,1-7.83,1.84-2.98.99-5.57,2.2-7.38,3.18-1.82.97-2.9,1.66-2.94,1.61h0Z"/>
      <path class="cls-12" d="M126.65,165.9c4.32-2.02,9.65-1.71,13.71.8,4.06,2.51,6.73,7.13,6.86,11.9-8.74-.65-17.2-3.33-20.57-12.7Z"/>
      <path class="cls-9" d="M126.65,165.9c4.32-2.02,9.65-1.71,13.71.8,4.06,2.51,6.73,7.13,6.86,11.9-8.74-.65-17.2-3.33-20.57-12.7Z"/>
      <path class="cls-2" d="M122.31,164.87s.25-.02.7.03c.44.04,1.09.14,1.88.3,1.57.32,3.72.92,5.97,1.91s4.15,2.16,5.44,3.11c.65.48,1.15.88,1.49,1.18.34.3.51.47.5.49-.04.05-.82-.55-2.15-1.43-1.73-1.14-3.55-2.13-5.44-2.98-1.9-.83-3.86-1.5-5.86-2-1.54-.38-2.52-.55-2.51-.61Z"/>
      <path class="cls-12" d="M410.17,259.31c-.51-4.23,1.23-8.68,4.49-11.43,3.26-2.75,7.94-3.74,12.03-2.52-2.98,7.26-7.62,13.71-16.52,13.96Z"/>
      <path class="cls-2" d="M408.09,262.72s.29-.85.99-2.11c.93-1.63,2.03-3.15,3.28-4.55,1.25-1.39,2.65-2.65,4.16-3.76,1.17-.84,1.95-1.25,1.98-1.21.03.06-.7.55-1.8,1.44-1.45,1.15-2.8,2.42-4.04,3.8-1.23,1.38-2.35,2.86-3.34,4.42-.74,1.21-1.16,1.99-1.23,1.96h0Z"/>
      <path class="cls-12" d="M472.43,218.21c-1.3-4.07-.42-8.76,2.26-12.08,2.68-3.32,7.09-5.16,11.34-4.74-1.57,7.68-4.91,14.88-13.6,16.82h0Z"/>
      <path class="cls-9" d="M472.43,218.21c-1.3-4.07-.42-8.76,2.26-12.08,2.68-3.32,7.09-5.16,11.34-4.74-1.57,7.68-4.91,14.88-13.6,16.82h0Z"/>
      <path class="cls-2" d="M471.03,221.95s.12-.89.58-2.25c.45-1.36,1.23-3.21,2.37-5.09.97-1.61,2.1-3.11,3.39-4.47.99-1.04,1.68-1.6,1.72-1.56.05.05-.58.67-1.5,1.76-1.2,1.41-2.29,2.91-3.25,4.49-.95,1.59-1.77,3.25-2.45,4.98-.51,1.31-.78,2.15-.85,2.14Z"/>
      <path class="cls-12" d="M3.09,161.61c.92-4.17,4.05-7.78,8.04-9.29,3.99-1.51,8.73-.89,12.18,1.62-5.21,5.85-11.73,10.39-20.22,7.67Z"/>
      <path class="cls-2" d="M0,164.14s.55-.7,1.63-1.65c1.08-.95,2.68-2.15,4.61-3.2,1.65-.9,3.38-1.62,5.18-2.16,1.38-.4,2.26-.53,2.27-.48.02.06-.84.29-2.18.76-1.75.61-3.44,1.36-5.07,2.24-1.62.9-3.16,1.92-4.62,3.06-1.1.89-1.76,1.48-1.8,1.43h0Z"/>
      <path class="cls-5" d="M364.76,58.35l6.36-11.47c-3-4.77-4.62-10.29-4.67-15.93-.16-16.84,13.36-30.62,30.2-30.79,16.84-.16,30.62,13.36,30.79,30.2.16,16.84-13.36,30.62-30.2,30.79-6.76.08-13.35-2.11-18.72-6.2v.02s-13.76,3.38-13.76,3.38h0Z"/>
      <path class="cls-12" d="M388.49,25.43l3.96-.04s-.03-3.33,3.43-3.43c1.8-.05,2.74,1.12,3.13,2.02.45,1.05.32,2.24-.25,3.21-.66,1.12-2.13,2.14-4.8,1.69l.09,8.95,3.92-.04-.05-5.24s5.49-1.47,5.43-7.54c-.05-5.8-5.27-7.1-7.5-7.08-1.69.02-7.49.49-7.35,7.49ZM398.04,39.65l-3.98.04.04,3.72,3.98-.04-.04-3.72Z"/>
    </g>
  </g>
</svg>