<?xml version="1.0" encoding="UTF-8"?>
<svg id="Layer_2" data-name="Layer 2" xmlns="http://www.w3.org/2000/svg" viewBox="0 0 1400.56 414.1">
  <defs>
    <style>
      .cls-1 {
        fill-rule: evenodd;
      }

      .cls-1, .cls-2 {
        fill: #656a7e;
        stroke-width: 0px;
      }
    </style>
  </defs>
  <g id="Layer_1-2" data-name="Layer 1">
    <g>
      <g>
        <path class="cls-1" d="M348.33,114.28c31.57,0,57.17-25.58,57.17-57.14S379.91,0,348.33,0s-57.17,25.58-57.17,57.14,25.6,57.14,57.17,57.14Z"/>
        <path class="cls-1" d="M348.33,264.18c31.57,0,57.17-25.58,57.17-57.14s-25.59-57.14-57.17-57.14-57.17,25.58-57.17,57.14,25.6,57.14,57.17,57.14Z"/>
        <path class="cls-1" d="M348.33,414.1c31.57,0,57.17-25.58,57.17-57.14s-25.59-57.14-57.17-57.14-57.17,25.58-57.17,57.14,25.6,57.14,57.17,57.14Z"/>
        <path class="cls-1" d="M202.75,264.18c31.57,0,57.17-25.58,57.17-57.14s-25.6-57.14-57.17-57.14-57.17,25.58-57.17,57.14,25.6,57.14,57.17,57.14Z"/>
        <path class="cls-1" d="M202.75,414.1c31.57,0,57.17-25.58,57.17-57.14s-25.6-57.14-57.17-57.14-57.17,25.58-57.17,57.14,25.6,57.14,57.17,57.14Z"/>
        <path class="cls-1" d="M57.17,414.1c31.57,0,57.17-25.58,57.17-57.14s-25.6-57.14-57.17-57.14S0,325.41,0,356.96s25.6,57.14,57.17,57.14Z"/>
      </g>
      <g>
        <path class="cls-2" d="M622.51,327.52c-33.85,0-60.24-25.89-60.24-67.7s26.38-66.21,60.24-66.21,59.24,26.38,59.24,66.21-26.88,67.7-59.24,67.7ZM558.79,352.41c18.42,30.37,55.26,41.82,80.65,41.82,64.72,0,118.48-54.76,118.48-133.42s-50.28-133.91-119.97-133.91c-27.88,0-57.25,11.45-73.68,36.84V33.31h-75.67v354.95h70.19v-35.84Z"/>
        <path class="cls-2" d="M887.67,132.87h-75.17v255.38h76.17v-103.05c0-53.27,26.39-86.62,70.19-86.62,7.47,0,12.94,1,16.93,2.49v-72.18c-3.98-1.49-9.96-1.99-15.93-1.99-33.85,0-58.74,18.92-72.18,50.28v-44.31Z"/>
        <path class="cls-2" d="M1020.2,388.26h75.67v-255.38h-75.67v255.38ZM1057.04,19.87c-23.4,0-41.82,16.93-41.82,40.32s18.42,40.82,41.82,40.82,42.32-17.42,42.32-40.82-18.92-40.32-42.32-40.32Z"/>
        <path class="cls-2" d="M1223.33,260.32l-87.62,127.94h84.63l47.79-76.17,47.79,76.17h84.63l-87.62-127.94,87.62-127.44h-86.12l-46.3,76.66-46.3-76.66h-86.12l87.62,127.44Z"/>
      </g>
    </g>
  </g>
</svg>